<svg width="24" height="24" viewBox="0 0 24 24" fill="none" xmlns="http://www.w3.org/2000/svg">
<path fill-rule="evenodd" clip-rule="evenodd" d="M11.0271 2.55843C11.0871 2.9093 10.8513 3.24237 10.5005 3.30238C6.34084 4.01379 3.17478 7.63818 3.17478 12.0005C3.17478 16.3628 6.34084 19.9872 10.5005 20.6986C10.8513 20.7586 11.0871 21.0917 11.0271 21.4426C10.9671 21.7934 10.634 22.0292 10.2832 21.9692C5.51489 21.1537 1.88574 17.0014 1.88574 12.0005C1.88574 6.99958 5.51489 2.84729 10.2832 2.03179C10.634 1.97178 10.9671 2.20757 11.0271 2.55843Z" fill="black"/>
<path fill-rule="evenodd" clip-rule="evenodd" d="M10.7074 2.10556C11.0175 2.28029 11.1273 2.67333 10.9526 2.98346L9.98156 4.70699C9.80683 5.01712 9.41378 5.12688 9.10366 4.95216C8.79353 4.77743 8.68377 4.38438 8.85849 4.07426L9.82953 2.35073C10.0042 2.0406 10.3973 1.93084 10.7074 2.10556Z" fill="black"/>
<path fill-rule="evenodd" clip-rule="evenodd" d="M8.14646 1.31217C8.33033 1.00738 8.72647 0.909359 9.03126 1.09323L10.7251 2.1151C11.0299 2.29897 11.1279 2.69511 10.944 2.9999C10.7602 3.30469 10.364 3.40271 10.0592 3.21884L8.36539 2.19697C8.0606 2.0131 7.96258 1.61696 8.14646 1.31217Z" fill="black"/>
<path fill-rule="evenodd" clip-rule="evenodd" d="M12.9722 2.55794C13.0322 2.20708 13.3653 1.97129 13.7162 2.0313C18.4844 2.8468 22.1136 6.9991 22.1136 12C22.1136 17.0009 18.4845 21.1532 13.7162 21.9687C13.3653 22.0287 13.0322 21.7929 12.9722 21.4421C12.9122 21.0912 13.148 20.7581 13.4989 20.6981C17.6585 19.9867 20.8245 16.3623 20.8245 12C20.8245 7.63769 17.6585 4.0133 13.4989 3.30189C13.148 3.24188 12.9122 2.90881 12.9722 2.55794Z" fill="black"/>
<path fill-rule="evenodd" clip-rule="evenodd" d="M14.8949 19.0484C15.205 19.2232 15.3148 19.6162 15.1401 19.9263L14.1691 21.6499C13.9943 21.96 13.6013 22.0698 13.2912 21.895C12.981 21.7203 12.8713 21.3273 13.046 21.0171L14.017 19.2936C14.1917 18.9835 14.5848 18.8737 14.8949 19.0484Z" fill="black"/>
<path fill-rule="evenodd" clip-rule="evenodd" d="M13.0556 21.0006C13.2395 20.6959 13.6357 20.5978 13.9404 20.7817L15.6343 21.8036C15.9391 21.9874 16.0371 22.3836 15.8532 22.6884C15.6693 22.9932 15.2732 23.0912 14.9684 22.9073L13.2746 21.8855C12.9698 21.7016 12.8718 21.3054 13.0556 21.0006Z" fill="black"/>
<path d="M15.931 8H8.04462C6.92495 8 6 8.94215 6 10.0826V14.9174C6 16.0579 6.92495 17 8.04462 17H15.9554C17.0751 17 18 16.0579 18 14.9174V10.0579C17.9757 8.91736 17.0751 8 15.931 8ZM8.04462 8.99174H15.9554C16.3205 8.99174 16.6126 9.16529 16.8073 9.43802L12.9128 11.4711C12.3286 11.7686 11.6471 11.7686 11.0872 11.4711L7.1927 9.43802C7.36308 9.16529 7.67951 8.99174 8.04462 8.99174ZM15.931 15.9835H8.04462C7.46045 15.9835 6.97363 15.4876 6.97363 14.8926V10.4298L10.6247 12.3388C11.0385 12.562 11.5254 12.6612 11.9878 12.6612C12.4503 12.6612 12.9128 12.562 13.3509 12.3388L17.002 10.4298V14.8926C17.002 15.5124 16.5396 15.9835 15.931 15.9835Z" fill="black"/>
</svg>
