<svg width="24" height="24" viewBox="0 0 24 24" fill="none" xmlns="http://www.w3.org/2000/svg">
<path fill-rule="evenodd" clip-rule="evenodd" d="M11.0271 2.55843C11.0871 2.9093 10.8513 3.24237 10.5005 3.30238C6.34084 4.01379 3.17478 7.63818 3.17478 12.0005C3.17478 16.3628 6.34084 19.9872 10.5005 20.6986C10.8513 20.7586 11.0871 21.0917 11.0271 21.4426C10.9671 21.7934 10.634 22.0292 10.2832 21.9692C5.51489 21.1537 1.88574 17.0014 1.88574 12.0005C1.88574 6.99958 5.51489 2.84729 10.2832 2.03179C10.634 1.97178 10.9671 2.20757 11.0271 2.55843Z" fill="black"/>
<path fill-rule="evenodd" clip-rule="evenodd" d="M10.7074 2.10556C11.0175 2.28029 11.1273 2.67333 10.9526 2.98346L9.98156 4.70699C9.80683 5.01712 9.41378 5.12688 9.10366 4.95216C8.79353 4.77743 8.68377 4.38438 8.85849 4.07426L9.82953 2.35073C10.0042 2.0406 10.3973 1.93084 10.7074 2.10556Z" fill="black"/>
<path fill-rule="evenodd" clip-rule="evenodd" d="M8.14646 1.31217C8.33033 1.00738 8.72647 0.909359 9.03126 1.09323L10.7251 2.1151C11.0299 2.29897 11.1279 2.69511 10.944 2.9999C10.7602 3.30469 10.364 3.40271 10.0592 3.21884L8.36539 2.19697C8.0606 2.0131 7.96258 1.61696 8.14646 1.31217Z" fill="black"/>
<path fill-rule="evenodd" clip-rule="evenodd" d="M12.9722 2.55794C13.0322 2.20708 13.3653 1.97129 13.7162 2.0313C18.4844 2.8468 22.1136 6.9991 22.1136 12C22.1136 17.0009 18.4845 21.1532 13.7162 21.9687C13.3653 22.0287 13.0322 21.7929 12.9722 21.4421C12.9122 21.0912 13.148 20.7581 13.4989 20.6981C17.6585 19.9867 20.8245 16.3623 20.8245 12C20.8245 7.63769 17.6585 4.0133 13.4989 3.30189C13.148 3.24188 12.9122 2.90881 12.9722 2.55794Z" fill="black"/>
<path fill-rule="evenodd" clip-rule="evenodd" d="M14.8949 19.0484C15.205 19.2232 15.3148 19.6162 15.1401 19.9263L14.1691 21.6499C13.9943 21.96 13.6013 22.0698 13.2912 21.895C12.981 21.7203 12.8713 21.3273 13.046 21.0171L14.017 19.2936C14.1917 18.9835 14.5848 18.8737 14.8949 19.0484Z" fill="black"/>
<path fill-rule="evenodd" clip-rule="evenodd" d="M13.0556 21.0006C13.2395 20.6959 13.6357 20.5978 13.9404 20.7817L15.6343 21.8036C15.9391 21.9874 16.0371 22.3836 15.8532 22.6884C15.6693 22.9932 15.2732 23.0912 14.9684 22.9073L13.2746 21.8855C12.9698 21.7016 12.8718 21.3054 13.0556 21.0006Z" fill="black"/>
<path fill-rule="evenodd" clip-rule="evenodd" d="M8.81586 11.3452C8.54917 11.3452 8.33298 11.5614 8.33298 11.8281V15.9001C8.33298 16.1668 8.54917 16.383 8.81586 16.383H15.1833C15.4499 16.383 15.6662 16.1669 15.6662 15.9001C15.6662 15.9001 15.6662 15.9001 15.6662 15.9001V11.8281C15.6662 11.5614 15.45 11.3452 15.1833 11.3452H8.81586ZM7.04395 11.8281C7.04395 10.8495 7.83725 10.0562 8.81586 10.0562H15.1833C16.1619 10.0562 16.9552 10.8495 16.9552 11.8281V15.9002C16.9552 16.8787 16.1619 17.6721 15.1833 17.6721H8.81586C7.83725 17.6721 7.04395 16.8787 7.04395 15.9001V11.8281Z" fill="black"/>
<path fill-rule="evenodd" clip-rule="evenodd" d="M8.04688 9.67962C8.04688 7.4964 9.81671 5.72656 11.9999 5.72656C14.1831 5.72656 15.953 7.4964 15.953 9.67962V10.7003C15.953 11.0562 15.6644 11.3448 15.3085 11.3448C14.9525 11.3448 14.6639 11.0562 14.6639 10.7003V9.67962C14.6639 8.20832 13.4712 7.0156 11.9999 7.0156C10.5286 7.0156 9.33591 8.20832 9.33591 9.67962V10.7003C9.33591 11.0562 9.04735 11.3448 8.69139 11.3448C8.33544 11.3448 8.04688 11.0562 8.04688 10.7003V9.67962Z" fill="black"/>
<path fill-rule="evenodd" clip-rule="evenodd" d="M12 12.7734C12.3559 12.7734 12.6445 13.062 12.6445 13.418V14.3097C12.6445 14.6657 12.3559 14.9542 12 14.9542C11.644 14.9542 11.3555 14.6657 11.3555 14.3097V13.418C11.3555 13.062 11.644 12.7734 12 12.7734Z" fill="black"/>
</svg>
