<svg width="40" height="40" viewBox="0 0 40 40" fill="none" xmlns="http://www.w3.org/2000/svg">
<rect width="40" height="40" rx="8" fill="#4A4B56"/>
<path d="M20 14.125C20.9665 14.125 21.75 13.3415 21.75 12.375C21.75 11.4085 20.9665 10.625 20 10.625C19.0335 10.625 18.25 11.4085 18.25 12.375C18.25 13.3415 19.0335 14.125 20 14.125Z" fill="#FFD600"/>
<path d="M29 17.125C29.9665 17.125 30.75 16.3415 30.75 15.375C30.75 14.4085 29.9665 13.625 29 13.625C28.0335 13.625 27.25 14.4085 27.25 15.375C27.25 16.3415 28.0335 17.125 29 17.125Z" fill="#FFD600"/>
<path d="M11 17.125C11.9665 17.125 12.75 16.3415 12.75 15.375C12.75 14.4085 11.9665 13.625 11 13.625C10.0335 13.625 9.25 14.4085 9.25 15.375C9.25 16.3415 10.0335 17.125 11 17.125Z" fill="#FFD600"/>
<path fill-rule="evenodd" clip-rule="evenodd" d="M29.235 16.522C29.299 16.204 29.151 15.882 28.87 15.722C28.588 15.563 28.235 15.602 27.995 15.82C27.995 15.82 26.949 16.771 25.769 17.844C25.217 18.346 24.452 18.541 23.727 18.366C23.002 18.191 22.411 17.668 22.149 16.969L20.702 13.112C20.592 12.819 20.313 12.625 20 12.625C19.687 12.625 19.408 12.819 19.298 13.112L17.851 16.969C17.589 17.668 16.998 18.191 16.273 18.366C15.548 18.541 14.783 18.346 14.231 17.844C13.051 16.771 12.005 15.82 12.005 15.82C11.765 15.602 11.412 15.563 11.13 15.722C10.849 15.882 10.701 16.204 10.765 16.522C10.765 16.522 11.878 22.087 12.443 24.914C12.7 26.2 13.829 27.125 15.14 27.125H24.86C26.171 27.125 27.3 26.2 27.557 24.914C28.122 22.087 29.235 16.522 29.235 16.522Z" fill="#FFD600"/>
<path fill-rule="evenodd" clip-rule="evenodd" d="M26 28.625H14C13.586 28.625 13.25 28.961 13.25 29.375C13.25 29.789 13.586 30.125 14 30.125H26C26.414 30.125 26.75 29.789 26.75 29.375C26.75 28.961 26.414 28.625 26 28.625Z" fill="#FFD600"/>
</svg>
