<svg width="235" height="250" viewBox="0 0 235 250" fill="none" xmlns="http://www.w3.org/2000/svg">
<g clip-path="url(#clip0_2001_1059)">
<path d="M158.96 65.1059H185.362L205.241 50.5491H217.865" stroke="#DBDBDB" stroke-width="0.75" stroke-miterlimit="10"/>
<path d="M219.133 51.8449C218.877 51.8449 218.626 51.7689 218.413 51.6265C218.2 51.4841 218.034 51.2817 217.935 51.0449C217.837 50.8081 217.812 50.5476 217.862 50.2962C217.912 50.0448 218.035 49.8139 218.216 49.6327C218.398 49.4515 218.629 49.3281 218.88 49.2781C219.132 49.2281 219.393 49.2537 219.63 49.3518C219.867 49.4499 220.069 49.616 220.212 49.8291C220.354 50.0422 220.43 50.2927 220.43 50.549C220.43 50.8927 220.293 51.2223 220.05 51.4653C219.807 51.7083 219.477 51.8449 219.133 51.8449Z" stroke="#DBDBDB" stroke-width="0.75" stroke-miterlimit="10"/>
<path d="M158.96 60.8529H182.958L202.842 46.2961H207.646" stroke="#DBDBDB" stroke-width="0.75" stroke-miterlimit="10"/>
<path d="M208.914 47.5922C208.658 47.591 208.407 47.5138 208.194 47.3702C207.981 47.2266 207.816 47.0231 207.719 46.7856C207.622 46.548 207.598 46.2871 207.65 46.0358C207.701 45.7845 207.826 45.5542 208.009 45.374C208.192 45.1938 208.424 45.0719 208.676 45.0236C208.928 44.9754 209.189 45.003 209.425 45.103C209.662 45.203 209.863 45.3708 210.004 45.5853C210.145 45.7998 210.219 46.0512 210.217 46.3077C210.214 46.6504 210.075 46.978 209.831 47.2187C209.587 47.4594 209.257 47.5937 208.914 47.5922Z" stroke="#DBDBDB" stroke-width="0.75" stroke-miterlimit="10"/>
<path d="M158.96 69.4045H207.566" stroke="#DBDBDB" stroke-width="0.75" stroke-miterlimit="10"/>
<path d="M208.857 70.7003C208.601 70.7003 208.35 70.6243 208.137 70.4819C207.923 70.3396 207.757 70.1372 207.659 69.9004C207.561 69.6636 207.535 69.4031 207.585 69.1517C207.635 68.9003 207.759 68.6694 207.94 68.4882C208.121 68.307 208.352 68.1835 208.604 68.1335C208.856 68.0835 209.116 68.1092 209.353 68.2073C209.59 68.3054 209.793 68.4715 209.935 68.6846C210.078 68.8977 210.154 69.1482 210.154 69.4045C210.154 69.7482 210.017 70.0778 209.774 70.3208C209.531 70.5638 209.201 70.7003 208.857 70.7003Z" stroke="#DBDBDB" stroke-width="0.75" stroke-miterlimit="10"/>
<path d="M158.96 73.7373H179.319L197.969 83.6245H231.415" stroke="#DBDBDB" stroke-width="0.75" stroke-miterlimit="10"/>
<path d="M232.706 84.9147C232.449 84.9147 232.198 84.8385 231.985 84.6959C231.771 84.5532 231.605 84.3505 231.507 84.1134C231.409 83.8763 231.384 83.6155 231.434 83.3639C231.485 83.1124 231.609 82.8815 231.791 82.7005C231.973 82.5195 232.204 82.3966 232.456 82.3472C232.708 82.2979 232.969 82.3243 233.206 82.4233C233.443 82.5222 233.645 82.6892 233.787 82.9031C233.928 83.1169 234.003 83.368 234.002 83.6245C234.002 83.7945 233.969 83.9627 233.903 84.1196C233.838 84.2765 233.743 84.419 233.622 84.5388C233.502 84.6587 233.359 84.7536 233.201 84.8181C233.044 84.8826 232.876 84.9154 232.706 84.9147Z" stroke="#DBDBDB" stroke-width="0.75" stroke-miterlimit="10"/>
<path d="M158.96 78.053H177.325L197.947 89.7041H215.106" stroke="#DBDBDB" stroke-width="0.75" stroke-miterlimit="10"/>
<path d="M216.397 90.9999C216.141 90.9999 215.89 90.9239 215.677 90.7815C215.463 90.6391 215.297 90.4367 215.199 90.1999C215.101 89.9632 215.075 89.7026 215.125 89.4512C215.175 89.1999 215.299 88.969 215.48 88.7877C215.661 88.6065 215.893 88.4831 216.144 88.4331C216.396 88.3831 216.656 88.4088 216.893 88.5068C217.13 88.6049 217.333 88.771 217.475 88.9841C217.618 89.1972 217.694 89.4478 217.694 89.704C217.694 90.0477 217.557 90.3773 217.314 90.6203C217.071 90.8634 216.741 90.9999 216.397 90.9999Z" stroke="#DBDBDB" stroke-width="0.75" stroke-miterlimit="10"/>
<path d="M75.2533 170.691H49.3368L29.4525 156.129H11.9673" stroke="#DBDBDB" stroke-width="0.75" stroke-miterlimit="10"/>
<path d="M10.6933 157.424C10.9503 157.426 11.2017 157.35 11.4159 157.208C11.63 157.066 11.7971 156.864 11.8959 156.627C11.9948 156.39 12.0209 156.129 11.9711 155.877C11.9212 155.625 11.7976 155.394 11.6159 155.212C11.4342 155.031 11.2027 154.907 10.9506 154.857C10.6985 154.808 10.4373 154.834 10.2002 154.932C9.963 155.031 9.76055 155.198 9.6185 155.412C9.47646 155.626 9.40123 155.878 9.40236 156.134C9.40386 156.476 9.54035 156.803 9.78213 157.045C10.0239 157.287 10.3514 157.423 10.6933 157.424Z" stroke="#DBDBDB" stroke-width="0.75" stroke-miterlimit="10"/>
<path d="M75.2533 166.375H51.7417L31.8574 151.819H22.1865" stroke="#DBDBDB" stroke-width="0.75" stroke-miterlimit="10"/>
<path d="M20.9126 153.115C21.1691 153.115 21.4198 153.039 21.633 152.896C21.8463 152.754 22.0125 152.551 22.1106 152.315C22.2088 152.078 22.2344 151.817 22.1844 151.566C22.1344 151.315 22.0109 151.084 21.8295 150.902C21.6482 150.721 21.4171 150.598 21.1656 150.548C20.9141 150.498 20.6534 150.524 20.4164 150.622C20.1795 150.72 19.977 150.886 19.8345 151.099C19.692 151.312 19.616 151.562 19.616 151.819C19.616 152.162 19.7526 152.492 19.9958 152.735C20.2389 152.978 20.5687 153.115 20.9126 153.115Z" stroke="#DBDBDB" stroke-width="0.75" stroke-miterlimit="10"/>
<path d="M75.2531 175.035H2.80469" stroke="#DBDBDB" stroke-width="0.75" stroke-miterlimit="10"/>
<path d="M1.50811 176.331C1.76457 176.331 2.01526 176.255 2.2285 176.113C2.44174 175.97 2.60794 175.768 2.70608 175.531C2.80422 175.294 2.8299 175.034 2.77987 174.783C2.72984 174.531 2.60634 174.3 2.425 174.119C2.24365 173.938 2.01261 173.814 1.76108 173.764C1.50955 173.714 1.24882 173.74 1.01189 173.838C0.774949 173.936 0.572437 174.102 0.429956 174.315C0.287475 174.529 0.211426 174.779 0.211426 175.035C0.211426 175.379 0.34804 175.709 0.591214 175.952C0.834389 176.195 1.16421 176.331 1.50811 176.331Z" stroke="#DBDBDB" stroke-width="0.75" stroke-miterlimit="10"/>
<path d="M75.2532 179.323H55.3803L36.7241 189.204H27.613" stroke="#DBDBDB" stroke-width="0.75" stroke-miterlimit="10"/>
<path d="M26.3165 190.5C26.5729 190.5 26.8236 190.424 27.0369 190.281C27.2501 190.139 27.4163 189.937 27.5144 189.7C27.6126 189.463 27.6383 189.203 27.5882 188.951C27.5382 188.7 27.4147 188.469 27.2334 188.288C27.052 188.107 26.821 187.983 26.5694 187.933C26.3179 187.883 26.0572 187.909 25.8202 188.007C25.5833 188.105 25.3808 188.271 25.2383 188.484C25.0958 188.697 25.0198 188.948 25.0198 189.204C25.019 189.374 25.0521 189.543 25.117 189.701C25.1818 189.858 25.2773 190.002 25.3979 190.122C25.5185 190.242 25.6617 190.338 25.8194 190.403C25.977 190.468 26.146 190.501 26.3165 190.5Z" stroke="#DBDBDB" stroke-width="0.75" stroke-miterlimit="10"/>
<path d="M75.2533 183.632H57.374L36.7527 195.289H14.7263" stroke="#DBDBDB" stroke-width="0.75" stroke-miterlimit="10"/>
<path d="M13.4296 196.579C13.6868 196.579 13.9382 196.503 14.1517 196.36C14.3653 196.217 14.5315 196.013 14.6291 195.776C14.7268 195.538 14.7514 195.276 14.7 195.024C14.6485 194.773 14.5233 194.542 14.3403 194.361C14.1572 194.181 13.9246 194.059 13.6719 194.011C13.4193 193.963 13.158 193.991 12.9214 194.091C12.6848 194.192 12.4835 194.361 12.3431 194.576C12.2027 194.792 12.1295 195.044 12.1329 195.301C12.1359 195.642 12.2741 195.968 12.5171 196.208C12.7601 196.447 13.0882 196.581 13.4296 196.579Z" stroke="#DBDBDB" stroke-width="0.75" stroke-miterlimit="10"/>
<path d="M120.997 42.5114V21.2413L129.582 9.52741V6.14795" stroke="#DBDBDB" stroke-width="0.75" stroke-miterlimit="10"/>
<path d="M128.286 4.80662C128.289 5.06215 128.368 5.31099 128.513 5.52182C128.657 5.73266 128.861 5.89608 129.098 5.99154C129.335 6.08699 129.595 6.11023 129.846 6.05831C130.096 6.00639 130.326 5.88164 130.505 5.69975C130.685 5.51786 130.807 5.28696 130.855 5.03607C130.904 4.78518 130.877 4.52551 130.779 4.28972C130.68 4.05393 130.514 3.85255 130.301 3.71091C130.088 3.56926 129.838 3.49367 129.582 3.49365C129.411 3.49364 129.241 3.52771 129.082 3.5939C128.924 3.66009 128.78 3.75708 128.659 3.87923C128.539 4.00138 128.444 4.14626 128.379 4.30546C128.315 4.46466 128.283 4.63501 128.286 4.80662Z" stroke="#DBDBDB" stroke-width="0.75" stroke-miterlimit="10"/>
<path d="M125.315 42.5116V23.6392L135.683 9.4991V2.80298" stroke="#DBDBDB" stroke-width="0.75" stroke-miterlimit="10"/>
<path d="M135.683 2.80286C136.399 2.80286 136.98 2.22269 136.98 1.50702C136.98 0.791349 136.399 0.211182 135.683 0.211182C134.967 0.211182 134.386 0.791349 134.386 1.50702C134.386 2.22269 134.967 2.80286 135.683 2.80286Z" stroke="#DBDBDB" stroke-width="0.75" stroke-miterlimit="10"/>
<path d="M116.678 42.5114V11.2686" stroke="#DBDBDB" stroke-width="0.75" stroke-miterlimit="10"/>
<path d="M115.393 9.97846C115.393 10.2347 115.469 10.4853 115.612 10.6984C115.754 10.9115 115.957 11.0776 116.194 11.1757C116.43 11.2737 116.691 11.2994 116.943 11.2494C117.194 11.1994 117.425 11.076 117.607 10.8948C117.788 10.7135 117.911 10.4826 117.962 10.2313C118.012 9.97989 117.986 9.71934 117.888 9.48256C117.79 9.24578 117.623 9.04339 117.41 8.90101C117.197 8.75862 116.946 8.68262 116.69 8.68262C116.346 8.68262 116.016 8.81914 115.773 9.06216C115.53 9.30518 115.393 9.63478 115.393 9.97846Z" stroke="#DBDBDB" stroke-width="0.75" stroke-miterlimit="10"/>
<path d="M112.36 42.5114V27.281L105.74 14.8021V3.07104" stroke="#DBDBDB" stroke-width="0.75" stroke-miterlimit="10"/>
<path d="M105.74 2.9513C106.456 2.9513 107.036 2.37113 107.036 1.65546C107.036 0.939786 106.456 0.359619 105.74 0.359619C105.023 0.359619 104.443 0.939786 104.443 1.65546C104.443 2.37113 105.023 2.9513 105.74 2.9513Z" stroke="#DBDBDB" stroke-width="0.75" stroke-miterlimit="10"/>
<path d="M108.042 42.5114V29.2733L98.5364 12.4673V9.1792" stroke="#DBDBDB" stroke-width="0.75" stroke-miterlimit="10"/>
<path d="M97.2398 7.80357C97.2386 8.06035 97.3139 8.31167 97.4559 8.52564C97.5979 8.73961 97.8004 8.90659 98.0376 9.00537C98.2747 9.10416 98.5359 9.1303 98.788 9.08048C99.0401 9.03067 99.2716 8.90713 99.4533 8.72556C99.635 8.54399 99.7586 8.31257 99.8085 8.06068C99.8583 7.80878 99.8322 7.54776 99.7333 7.31074C99.6345 7.07373 99.4674 6.8714 99.2533 6.72945C99.0392 6.5875 98.7877 6.51231 98.5307 6.51344C98.1888 6.51494 97.8613 6.65135 97.6195 6.89297C97.3778 7.13459 97.2413 7.46187 97.2398 7.80357Z" stroke="#DBDBDB" stroke-width="0.75" stroke-miterlimit="10"/>
<path d="M93.1725 25.9854H12.1443V38.2587H93.1725V25.9854Z" fill="#0C0B14"/>
<path d="M93.3096 38.3957H12.0015V25.8369H93.3096V38.3957ZM12.2814 38.1217H93.0354V26.1338H12.2814V38.1217Z" fill="#DBDBDB"/>
<path d="M30.8805 29.3132C31.0376 29.7688 31.1467 30.2394 31.2061 30.7175C31.3204 31.6503 31.3204 32.5934 31.2061 33.5261C31.1494 34.0047 31.0402 34.4757 30.8805 34.9304C30.7235 34.4749 30.6144 34.0043 30.5549 33.5261C30.4979 33.0602 30.4693 32.5912 30.4693 32.1218C30.4684 31.6522 30.4989 31.1831 30.5606 30.7175C30.6154 30.2391 30.7227 29.7682 30.8805 29.3132Z" fill="#C7C7C7"/>
<path d="M33.708 32.122C33.2522 32.2789 32.7812 32.388 32.3028 32.4474C31.3695 32.5615 30.4257 32.5615 29.4924 32.4474C29.0135 32.3907 28.5422 32.2816 28.0872 32.122C28.5422 31.9624 29.0135 31.8533 29.4924 31.7966C29.9586 31.7396 30.4279 31.711 30.8976 31.711C31.3675 31.7101 31.8369 31.7406 32.3028 31.8023C32.7815 31.857 33.2528 31.9642 33.708 32.122Z" fill="#C7C7C7"/>
<path d="M32.9757 30.1353C32.7647 30.5685 32.5081 30.978 32.2103 31.3569C31.923 31.7286 31.612 32.0814 31.2792 32.413C30.9486 32.7469 30.5955 33.0578 30.2224 33.3435C29.8433 33.6411 29.4335 33.8975 29 34.1084C29.211 33.6752 29.4676 33.2657 29.7654 32.8868C30.3413 32.1415 31.0092 31.4721 31.7533 30.8945C32.1327 30.5989 32.5425 30.3444 32.9757 30.1353Z" fill="#C7C7C7"/>
<path d="M32.9757 34.1084C32.5422 33.8975 32.1325 33.6411 31.7533 33.3435C31.0096 32.7676 30.3416 32.1002 29.7654 31.3569C29.4676 30.978 29.211 30.5685 29 30.1353C29.4332 30.3444 29.843 30.5989 30.2224 30.8945C30.5955 31.1802 30.9486 31.491 31.2792 31.825C31.612 32.1566 31.923 32.5093 32.2103 32.8811C32.5084 33.2618 32.765 33.6732 32.9757 34.1084Z" fill="#C7C7C7"/>
<path d="M41.8479 29.3132C42.0031 29.7689 42.1104 30.2396 42.1678 30.7175C42.2896 31.6498 42.2896 32.5939 42.1678 33.5261C42.1131 34.0046 42.0058 34.4755 41.8479 34.9304C41.6855 34.4765 41.5763 34.0052 41.5223 33.5261C41.4606 33.0606 41.4301 32.5914 41.4309 32.1218C41.4329 31.6523 41.4634 31.1834 41.5223 30.7175C41.579 30.2389 41.6882 29.768 41.8479 29.3132Z" fill="#C7C7C7"/>
<path d="M44.6583 32.122C44.2025 32.2789 43.7315 32.388 43.2531 32.4474C42.3179 32.5615 41.3722 32.5615 40.437 32.4474C39.958 32.3907 39.4868 32.2816 39.0317 32.122C39.4868 31.9624 39.958 31.8533 40.437 31.7966C40.9051 31.7395 41.3763 31.7109 41.8479 31.711C42.3178 31.7101 42.7872 31.7406 43.2531 31.8023C43.7318 31.857 44.2031 31.9642 44.6583 32.122Z" fill="#C7C7C7"/>
<path d="M43.8359 30.1353C43.6249 30.5685 43.3683 30.978 43.0705 31.3569C42.7796 31.7273 42.4668 32.08 42.1337 32.413C41.8051 32.7469 41.4539 33.0578 41.0826 33.3435C40.7023 33.6423 40.2905 33.8988 39.8545 34.1084C40.0655 33.6752 40.3221 33.2657 40.6199 32.8868C41.1996 32.143 41.8692 31.4738 42.6135 30.8945C42.9929 30.5989 43.4027 30.3444 43.8359 30.1353Z" fill="#C7C7C7"/>
<path d="M43.8359 34.1084C43.4024 33.8975 42.9927 33.6411 42.6135 33.3435C41.8696 32.7659 41.2 32.0987 40.6199 31.3569C40.3221 30.978 40.0655 30.5685 39.8545 30.1353C40.2902 30.343 40.702 30.5976 41.0826 30.8945C41.4539 31.1802 41.8051 31.4911 42.1337 31.825C42.4668 32.158 42.7796 32.5106 43.0705 32.8811C43.3686 33.2618 43.6252 33.6732 43.8359 34.1084Z" fill="#C7C7C7"/>
<path d="M52.8097 29.3132C52.9676 29.7682 53.0749 30.2391 53.1296 30.7175C53.1913 31.1831 53.2218 31.6522 53.221 32.1218C53.2209 32.5912 53.1923 33.0602 53.1353 33.5261C53.0759 34.0043 52.9668 34.4749 52.8097 34.9304C52.65 34.4757 52.5408 34.0047 52.4841 33.5261C52.3699 32.5934 52.3699 31.6503 52.4841 30.7175C52.5435 30.2394 52.6527 29.7688 52.8097 29.3132Z" fill="#C7C7C7"/>
<path d="M55.6201 32.122C55.1643 32.2789 54.6933 32.388 54.2149 32.4474C53.2816 32.5615 52.3378 32.5615 51.4045 32.4474C50.9256 32.3907 50.4543 32.2816 49.9993 32.122C50.4543 31.9624 50.9256 31.8533 51.4045 31.7966C51.8707 31.7396 52.34 31.711 52.8097 31.711C53.2796 31.7101 53.7491 31.7406 54.2149 31.8023C54.6936 31.857 55.1649 31.9642 55.6201 32.122Z" fill="#C7C7C7"/>
<path d="M54.7976 30.1353C54.5866 30.5685 54.33 30.978 54.0322 31.3569C53.7525 31.7264 53.4511 32.0791 53.1296 32.413C52.7978 32.7456 52.4448 33.0564 52.0729 33.3435C51.6919 33.6414 51.2802 33.8979 50.8447 34.1084C51.0558 33.6752 51.3124 33.2657 51.6102 32.8868C51.8974 32.5151 52.2084 32.1623 52.5413 31.8307C52.867 31.4984 53.2123 31.1858 53.5752 30.8945C53.9546 30.5989 54.3644 30.3444 54.7976 30.1353Z" fill="#C7C7C7"/>
<path d="M54.7976 34.1084C54.3641 33.8975 53.9543 33.6411 53.5752 33.3435C53.2032 33.0564 52.8502 32.7456 52.5184 32.413C52.1843 32.0826 51.8732 31.7298 51.5873 31.3569C51.2975 30.9769 51.0485 30.5674 50.8447 30.1353C51.27 30.3458 51.6721 30.6002 52.0443 30.8945C52.4262 31.1824 52.7888 31.4952 53.1296 31.8307C53.4609 32.1638 53.7718 32.5164 54.0607 32.8868C54.3486 33.267 54.5956 33.6765 54.7976 34.1084Z" fill="#C7C7C7"/>
<path d="M63.7716 29.3132C63.9313 29.768 64.0405 30.2389 64.0972 30.7175C64.1542 31.1835 64.1828 31.6524 64.1829 32.1218C64.1856 32.5913 64.157 33.0605 64.0972 33.5261C64.0405 34.0047 63.9313 34.4757 63.7716 34.9304C63.6137 34.4755 63.5064 34.0046 63.4517 33.5261C63.3299 32.5939 63.3299 31.6498 63.4517 30.7175C63.5064 30.2391 63.6137 29.7682 63.7716 29.3132Z" fill="#C7C7C7"/>
<path d="M66.5877 32.122C66.1319 32.2789 65.661 32.388 65.1825 32.4474C64.7144 32.5041 64.2432 32.5327 63.7716 32.533C63.3019 32.5329 62.8326 32.5043 62.3664 32.4474C61.8875 32.3907 61.4162 32.2816 60.9612 32.122C61.4162 31.9624 61.8875 31.8533 62.3664 31.7966C62.8326 31.7396 63.3019 31.711 63.7716 31.7109C64.2434 31.7103 64.7148 31.7408 65.1825 31.8023C65.6613 31.857 66.1325 31.9642 66.5877 32.122Z" fill="#C7C7C7"/>
<path d="M65.7594 30.1353C65.5505 30.5696 65.2938 30.9794 64.994 31.3569C64.7067 31.7286 64.3957 32.0814 64.0629 32.413C63.7323 32.7469 63.3792 33.0578 63.0061 33.3435C62.627 33.6411 62.2172 33.8975 61.7837 34.1084C61.9947 33.6752 62.2513 33.2657 62.5491 32.8868C63.1303 32.1404 63.804 31.471 64.5541 30.8945C64.9281 30.5999 65.3321 30.3454 65.7594 30.1353Z" fill="#C7C7C7"/>
<path d="M65.7594 34.1084C65.3318 33.8964 64.9278 33.6401 64.5541 33.3435C63.8103 32.7676 63.1424 32.1002 62.5662 31.3569C62.2684 30.978 62.0118 30.5685 61.8008 30.1353C62.2281 30.3454 62.6321 30.5999 63.0061 30.8945C63.3792 31.1802 63.7323 31.491 64.0628 31.825C64.3957 32.1566 64.7067 32.5093 64.9939 32.8811C65.2941 33.2604 65.5508 33.672 65.7594 34.1084Z" fill="#C7C7C7"/>
<path d="M74.7391 29.3132C74.897 29.7682 75.0043 30.2391 75.059 30.7175C75.1808 31.6498 75.1808 32.5939 75.059 33.5261C75.0043 34.0046 74.897 34.4755 74.7391 34.9304C74.5794 34.4757 74.4702 34.0047 74.4135 33.5261C74.3537 33.0605 74.325 32.5913 74.3278 32.1218C74.3279 31.6524 74.3565 31.1835 74.4135 30.7175C74.4702 30.2389 74.5794 29.768 74.7391 29.3132Z" fill="#C7C7C7"/>
<path d="M77.5494 32.122C77.0936 32.2789 76.6226 32.388 76.1442 32.4474C75.2109 32.5615 74.2671 32.5615 73.3338 32.4474C72.8529 32.3914 72.3797 32.2822 71.9229 32.122C72.3797 31.9617 72.8529 31.8526 73.3338 31.7966C73.8 31.7396 74.2693 31.711 74.739 31.711C75.2089 31.7101 75.6784 31.7406 76.1442 31.8023C76.6229 31.857 77.0942 31.9642 77.5494 32.122Z" fill="#C7C7C7"/>
<path d="M76.7269 30.1353C76.5213 30.5677 76.2704 30.9772 75.9786 31.3569C75.6897 31.7272 75.3787 32.0799 75.0475 32.413C74.7157 32.7456 74.3627 33.0564 73.9907 33.3435C73.6116 33.6411 73.2018 33.8975 72.7683 34.1084C72.9751 33.6729 73.232 33.2629 73.5337 32.8868C74.1043 32.1426 74.7664 31.4732 75.5045 30.8945C75.8839 30.5989 76.2937 30.3444 76.7269 30.1353Z" fill="#C7C7C7"/>
<path d="M76.7269 34.1084C76.2935 33.8975 75.8837 33.6411 75.5045 33.3435C74.7608 32.7676 74.0929 32.1002 73.5167 31.3569C73.2149 30.9808 72.958 30.5708 72.7512 30.1353C73.1845 30.3444 73.5942 30.5989 73.9736 30.8945C74.3456 31.1816 74.6986 31.4924 75.0304 31.825C75.3677 32.1594 75.6844 32.514 75.9786 32.8868C76.2705 33.2665 76.5213 33.676 76.7269 34.1084Z" fill="#C7C7C7"/>
<path d="M85.6894 29.3132C85.8464 29.7688 85.9555 30.2394 86.015 30.7175C86.1292 31.6503 86.1292 32.5934 86.015 33.5261C85.9583 34.0047 85.8491 34.4757 85.6894 34.9304C85.5323 34.4749 85.4232 34.0043 85.3638 33.5261C85.3068 33.0602 85.2782 32.5912 85.2781 32.1218C85.2772 31.6522 85.3078 31.1831 85.3695 30.7175C85.4242 30.2391 85.5315 29.7682 85.6894 29.3132Z" fill="#C7C7C7"/>
<path d="M88.5112 32.122C88.0554 32.2789 87.5845 32.388 87.106 32.4474C86.1727 32.5615 85.2289 32.5615 84.2956 32.4474C83.8167 32.3907 83.3454 32.2816 82.8904 32.122C83.3454 31.9624 83.8167 31.8533 84.2956 31.7966C84.7618 31.7396 85.2311 31.711 85.7008 31.711C86.1707 31.7101 86.6402 31.7406 87.106 31.8023C87.5847 31.857 88.056 31.9642 88.5112 32.122Z" fill="#C7C7C7"/>
<path d="M87.6889 30.1353C87.4778 30.5685 87.2212 30.978 86.9234 31.3569C86.6362 31.7286 86.3251 32.0814 85.9923 32.413C85.6618 32.7469 85.3087 33.0578 84.9356 33.3435C84.5564 33.6411 84.1466 33.8975 83.7131 34.1084C83.9242 33.6752 84.1808 33.2657 84.4786 32.8868C85.0544 32.1415 85.7223 31.4721 86.4664 30.8945C86.8459 30.5989 87.2556 30.3444 87.6889 30.1353Z" fill="#C7C7C7"/>
<path d="M87.6889 34.1084C87.2554 33.8975 86.8456 33.6411 86.4664 33.3435C85.7227 32.7676 85.0548 32.1002 84.4786 31.3569C84.1808 30.978 83.9242 30.5685 83.7131 30.1353C84.1464 30.3444 84.5561 30.5989 84.9356 30.8945C85.3087 31.1802 85.6618 31.491 85.9923 31.825C86.3251 32.1566 86.6362 32.5093 86.9234 32.8811C87.2216 33.2618 87.4782 33.6732 87.6889 34.1084Z" fill="#C7C7C7"/>
<path d="M24.4429 25.9854H12.2815V38.1388H24.4429V25.9854Z" fill="#6C48DD"/>
<path d="M20.3756 30.6034V32.7727H19.7586V30.6034C19.7762 30.4092 19.7531 30.2133 19.6908 30.0285C19.6284 29.8436 19.5282 29.6738 19.3966 29.5297C19.2649 29.3857 19.1046 29.2707 18.926 29.192C18.7474 29.1133 18.5544 29.0727 18.3591 29.0727C18.1639 29.0727 17.9709 29.1133 17.7923 29.192C17.6136 29.2707 17.4534 29.3857 17.3217 29.5297C17.1901 29.6738 17.0899 29.8436 17.0275 30.0285C16.9652 30.2133 16.9421 30.4092 16.9596 30.6034V32.7727H16.3484V30.6034C16.3111 30.3191 16.3349 30.0301 16.4183 29.7557C16.5017 29.4813 16.6427 29.2279 16.832 29.0123C17.0212 28.7967 17.2543 28.624 17.5157 28.5057C17.7771 28.3874 18.0608 28.3262 18.3477 28.3262C18.6347 28.3262 18.9183 28.3874 19.1797 28.5057C19.4411 28.624 19.6742 28.7967 19.8635 29.0123C20.0527 29.2279 20.1937 29.4813 20.2771 29.7557C20.3605 30.0301 20.3843 30.3191 20.347 30.6034H20.3756Z" fill="white"/>
<path d="M16.3486 31.1687L16.9656 31.1915V32.7728H16.3486V31.1687Z" fill="white"/>
<path d="M20.3757 31.3285V32.7728H19.7588V31.3057L20.3757 31.3285Z" fill="white"/>
<path d="M21.1639 31.5339H15.5659V35.6555H21.1639V31.5339Z" fill="white"/>
<path opacity="0.1" d="M21.164 31.5339H18.365V35.6555H21.164V31.5339Z" fill="white"/>
<path d="M18.5763 33.7489L18.7877 34.7593H17.8794L18.0965 33.7489C18.0307 33.709 17.9762 33.6528 17.9382 33.5859C17.9002 33.5189 17.88 33.4434 17.8794 33.3664C17.8784 33.2866 17.8982 33.2078 17.9371 33.1381C17.976 33.0683 18.0325 33.0099 18.101 32.9688C18.1695 32.9277 18.2476 32.9052 18.3275 32.9037C18.4074 32.9021 18.4863 32.9215 18.5563 32.96C18.6264 32.9984 18.6851 33.0545 18.7267 33.1227C18.7683 33.1909 18.7912 33.2689 18.7932 33.3487C18.7952 33.4285 18.7763 33.5075 18.7382 33.5777C18.7002 33.6479 18.6443 33.707 18.5763 33.7489Z" fill="#DBDBDB"/>
<rect x="62" y="32" width="114" height="218" rx="9" fill="#0C0B14"/>
<path d="M5.60938 249.652C77.041 249.298 157.172 249.298 228.604 249.652C157.201 250 77.041 250 5.60938 249.652Z" fill="white"/>
<path d="M165.381 31.1001H68.8439C67.5487 31.1113 66.2683 31.3774 65.076 31.8833C63.8838 32.3892 62.8029 33.1249 61.8953 34.0484C60.9876 34.9719 60.2709 36.0651 59.7862 37.2655C59.3015 38.4659 59.0582 39.75 59.0703 41.0444V239.702C59.0474 242.315 60.0642 244.831 61.8969 246.696C63.7297 248.561 66.2285 249.622 68.8439 249.646H165.381C167.998 249.623 170.499 248.563 172.334 246.698C174.168 244.834 175.187 242.317 175.166 239.702V41.0444C175.177 39.7492 174.933 38.4646 174.447 37.2638C173.962 36.063 173.244 34.9696 172.335 34.0461C171.427 33.1226 170.345 32.3871 169.151 31.8816C167.958 31.3761 166.677 31.1105 165.381 31.1001ZM169.054 233.548C169.054 238.777 165.135 243.007 160.303 243.007H73.9164C69.0667 243.007 65.1538 238.777 65.1538 233.548V48.5911C65.1538 37.9389 69.0667 37.4195 73.9164 37.4195H91.2188C92.2241 37.4195 93.0467 38.5612 93.0467 39.9769V40.5991C93.0467 43.9158 94.8632 43.9272 97.0967 43.9272H137.082C139.367 43.9272 141.132 43.9272 141.132 40.5991V39.9598C141.132 38.544 141.944 37.4023 142.972 37.4023H160.274C165.107 37.4023 169.025 38.818 169.025 48.574L169.054 233.548Z" fill="#171823"/>
<path d="M122.562 39.7542H111.646C111.467 39.7542 111.296 39.6832 111.169 39.5569C111.043 39.4306 110.972 39.2592 110.972 39.0806C110.972 38.9921 110.989 38.9045 111.023 38.8228C111.057 38.7411 111.107 38.6668 111.169 38.6043C111.232 38.5417 111.306 38.4921 111.388 38.4583C111.47 38.4244 111.557 38.407 111.646 38.407H122.562C122.65 38.407 122.738 38.4244 122.82 38.4583C122.902 38.4921 122.976 38.5417 123.038 38.6043C123.101 38.6668 123.151 38.7411 123.185 38.8228C123.218 38.9045 123.236 38.9921 123.236 39.0806C123.236 39.2592 123.165 39.4306 123.038 39.5569C122.912 39.6832 122.741 39.7542 122.562 39.7542Z" fill="white"/>
<path d="M88.2313 41.5524L88.0656 41.7179C88.0313 41.7522 88.0028 41.7864 87.9685 41.8149C87.5404 41.3897 86.9613 41.1509 86.3577 41.1509C85.754 41.1509 85.1749 41.3897 84.7468 41.8149C84.7125 41.8149 84.684 41.7522 84.6554 41.7236L84.4897 41.5581L84.7011 41.3697C84.8511 41.2465 85.0162 41.1429 85.1924 41.0614C85.3969 40.9594 85.6139 40.8846 85.8378 40.8388L86.1634 40.7988H86.4491H86.6661C86.8614 40.8244 87.053 40.8723 87.2373 40.9415C87.3777 40.9927 87.5133 41.0557 87.6429 41.1299C87.7784 41.2075 87.9065 41.2973 88.0256 41.3982L88.2027 41.5581L88.2313 41.5524Z" fill="#A6A6A6"/>
<path d="M85.2723 42.3401L85.0095 42.0775C85.2996 41.7868 85.6766 41.5984 86.0834 41.5409C86.3762 41.4954 86.6755 41.5203 86.9567 41.6137C87.2379 41.707 87.4927 41.866 87.7 42.0775L87.4372 42.3401C87.2965 42.1971 87.1284 42.0839 86.9429 42.0074C86.7574 41.9309 86.5583 41.8926 86.3576 41.8948C86.1562 41.8932 85.9564 41.9317 85.77 42.0081C85.5837 42.0846 85.4144 42.1975 85.2723 42.3401Z" fill="#A6A6A6"/>
<path d="M87.1746 42.6027L86.9118 42.8653C86.8374 42.7901 86.7482 42.731 86.65 42.6917C86.5517 42.6525 86.4464 42.6338 86.3406 42.637C86.2342 42.6335 86.1284 42.6525 86.0299 42.6929C85.9315 42.7332 85.8427 42.7939 85.7694 42.871L85.5066 42.6084C85.6131 42.494 85.7419 42.4026 85.8852 42.3399C86.0284 42.2773 86.183 42.2447 86.3393 42.2441C86.4957 42.2436 86.6505 42.2752 86.7942 42.3368C86.9379 42.3985 87.0673 42.489 87.1746 42.6027Z" fill="#A6A6A6"/>
<path d="M86.5918 43.105C86.5926 43.1362 86.5871 43.1672 86.5756 43.1963C86.5642 43.2253 86.5471 43.2518 86.5252 43.2742C86.5034 43.2965 86.4773 43.3143 86.4486 43.3264C86.4198 43.3385 86.3888 43.3447 86.3576 43.3447C86.294 43.3447 86.2329 43.3195 86.1879 43.2745C86.143 43.2295 86.1177 43.1686 86.1177 43.105C86.1177 43.0737 86.1239 43.0428 86.136 43.0141C86.1482 42.9853 86.1659 42.9592 86.1883 42.9374C86.2106 42.9156 86.2371 42.8985 86.2662 42.8871C86.2953 42.8756 86.3264 42.8702 86.3576 42.8709C86.4197 42.8709 86.4793 42.8956 86.5232 42.9395C86.5671 42.9834 86.5918 43.0429 86.5918 43.105Z" fill="#A6A6A6"/>
<path d="M71.9229 42.0605C71.9217 41.9236 71.9613 41.7895 72.0366 41.6752C72.1118 41.5608 72.2194 41.4714 72.3456 41.4182C72.4718 41.3651 72.6109 41.3506 72.7454 41.3766C72.8798 41.4026 73.0035 41.4679 73.1007 41.5643C73.198 41.6607 73.2644 41.7837 73.2915 41.9179C73.3186 42.052 73.3053 42.1912 73.2532 42.3177C73.201 42.4443 73.1124 42.5525 72.9986 42.6287C72.8849 42.7048 72.751 42.7455 72.6141 42.7455C72.4317 42.7455 72.2568 42.6735 72.1273 42.5452C71.9979 42.4169 71.9244 42.2427 71.9229 42.0605Z" fill="#A6A6A6"/>
<path d="M74.0935 42.0605C74.0924 41.9236 74.132 41.7895 74.2072 41.6752C74.2825 41.5608 74.39 41.4714 74.5162 41.4182C74.6424 41.3651 74.7816 41.3506 74.916 41.3766C75.0505 41.4026 75.1742 41.4679 75.2714 41.5643C75.3686 41.6607 75.435 41.7837 75.4622 41.9179C75.4893 42.052 75.476 42.1912 75.4238 42.3177C75.3717 42.4443 75.2831 42.5525 75.1693 42.6287C75.0555 42.7048 74.9217 42.7455 74.7847 42.7455C74.6024 42.7455 74.4274 42.6735 74.298 42.5452C74.1685 42.4169 74.095 42.2427 74.0935 42.0605Z" fill="#A6A6A6"/>
<path d="M76.2642 42.0604C76.2631 41.9233 76.3028 41.789 76.3783 41.6746C76.4538 41.5601 76.5617 41.4707 76.6882 41.4177C76.8147 41.3647 76.9542 41.3505 77.0888 41.377C77.2234 41.4035 77.3471 41.4694 77.4441 41.5663C77.5411 41.6633 77.607 41.7869 77.6335 41.9214C77.66 42.0559 77.6458 42.1953 77.5928 42.3217C77.5398 42.4482 77.4503 42.556 77.3358 42.6314C77.2213 42.7069 77.0868 42.7466 76.9497 42.7455C76.7683 42.744 76.5948 42.6713 76.4666 42.5432C76.3384 42.415 76.2657 42.2417 76.2642 42.0604Z" fill="#A6A6A6"/>
<path d="M78.4348 42.0604C78.4337 41.9233 78.4734 41.789 78.5489 41.6746C78.6245 41.5601 78.7323 41.4707 78.8589 41.4177C78.9854 41.3647 79.1248 41.3505 79.2594 41.377C79.394 41.4035 79.5177 41.4694 79.6147 41.5663C79.7117 41.6633 79.7777 41.7869 79.8042 41.9214C79.8307 42.0559 79.8165 42.1953 79.7635 42.3217C79.7104 42.4482 79.621 42.556 79.5064 42.6314C79.3919 42.7069 79.2575 42.7466 79.1203 42.7455C78.939 42.744 78.7655 42.6713 78.6373 42.5432C78.509 42.415 78.4363 42.2417 78.4348 42.0604Z" fill="#A6A6A6"/>
<path d="M80.5996 42.0605C80.5985 41.9236 80.6381 41.7895 80.7133 41.6752C80.7886 41.5608 80.8961 41.4714 81.0223 41.4182C81.1485 41.3651 81.2877 41.3506 81.4221 41.3766C81.5566 41.4026 81.6803 41.4679 81.7775 41.5643C81.8747 41.6607 81.9411 41.7837 81.9683 41.9179C81.9954 42.052 81.9821 42.1912 81.9299 42.3177C81.8778 42.4443 81.7892 42.5525 81.6754 42.6287C81.5616 42.7048 81.4278 42.7455 81.2908 42.7455C81.1085 42.7455 80.9335 42.6735 80.8041 42.5452C80.6746 42.4169 80.6011 42.2427 80.5996 42.0605Z" fill="#A6A6A6"/>
<path d="M161.12 41.1072H155.802V43.4191H161.12V41.1072Z" fill="#A6A6A6" stroke="white" stroke-width="0.5" stroke-miterlimit="10"/>
<path d="M159.737 41.4041H156.121V43.1166H159.737V41.4041Z" fill="#A6A6A6"/>
<path d="M161.765 41.5696H161.268V42.9568H161.765V41.5696Z" fill="#A6A6A6"/>
<path d="M133.101 126.798C132.998 140.801 131.439 162.368 123.002 173.819C119.437 178.386 114.856 178.449 111.252 173.819C102.758 162.402 101.113 140.801 100.97 126.781C101.124 112.784 102.781 91.1482 111.252 79.7426C114.833 75.1757 119.415 75.1301 123.008 79.7426C131.445 91.1597 133.004 112.761 133.107 126.764L133.101 126.798ZM133.101 126.798C132.947 112.824 131.307 91.2909 122.853 79.891C116.57 72.1217 110.732 79.263 107.967 85.885C102.661 98.7691 101.524 112.989 101.381 126.798C101.518 140.607 102.661 154.827 107.962 167.711C110.709 174.282 116.53 181.497 122.853 173.705C131.307 162.317 132.947 140.773 133.101 126.798Z" fill="#6C48DD"/>
<path d="M125.104 112.978C137.025 120.022 148.798 128.128 157.333 139.191C165.512 150.203 161.662 157.008 147.953 155.461C134.072 153.651 121.105 147.566 109.024 140.801C96.9655 133.677 79.0462 121.421 73.4025 108.371C71.2375 102.993 73.4881 99.0032 79.2975 98.2097C93.4582 96.6342 112.891 106.059 125.098 112.978H125.104ZM125.104 112.978C112.891 106.127 93.4582 96.7826 79.3318 98.3924C69.4439 99.968 72.7227 108.571 77.0754 114.279C85.5924 125.314 97.3425 133.403 109.241 140.43C121.277 147.218 134.169 153.343 147.987 155.192C161.428 156.757 165.295 150.255 157.201 139.288C148.724 128.208 136.991 120.062 125.104 112.978Z" fill="#6C48DD"/>
<path d="M109.11 112.978C121.323 106.059 140.739 96.6398 154.911 98.2096C160.663 99.0031 162.993 102.942 160.8 108.371C155.151 121.432 137.254 133.654 125.184 140.801C113.108 147.566 100.147 153.628 86.2608 155.461C72.6543 157.002 68.6271 150.283 76.887 139.191C85.4211 128.128 97.1941 120.022 109.116 112.978H109.11ZM109.11 112.978C97.2226 120.062 85.4954 128.208 77.0127 139.288C69.0156 150.135 72.6657 156.768 86.2266 155.192C100.044 153.343 112.931 147.2 124.973 140.43C136.871 133.408 148.621 125.314 157.138 114.279C165.21 103.433 161.508 96.8281 147.959 98.3523C134.118 100.151 121.191 106.23 109.116 112.978H109.11Z" fill="#6C48DD"/>
<path d="M133.404 111.14V128.716H128.434V111.14C128.434 104.455 123.356 99.0204 117.107 99.0204C110.858 99.0204 105.779 104.455 105.779 111.14V128.716H100.81V111.14C100.81 101.566 108.121 93.7856 117.107 93.7856C126.092 93.7856 133.404 101.566 133.404 111.14Z" fill="white"/>
<path d="M6.20932 249.806C7.54028 250.223 46.3036 249.384 47.7202 248.436C48.2629 248.088 44.9441 211.393 44.9441 211.393L20.3814 211.861L23.1747 236.408C23.1747 236.408 8.89408 243.178 7.42603 244.4C5.95798 245.622 4.88408 249.395 6.20932 249.806Z" fill="#AD6359"/>
<path d="M6.20931 249.806C7.53455 250.217 46.3093 249.383 47.7202 248.436C47.8916 248.327 47.943 244.605 47.3261 239.753C40.2943 240.929 15.2061 244.777 13.2525 243.629C11.8873 242.83 13.0926 241.58 14.2122 240.735C11.0076 242.333 8.01438 243.869 7.39745 244.383C5.96368 245.582 4.88407 249.395 6.20931 249.806Z" fill="#171823"/>
<path d="M22.4608 230.523L46.6007 230.186C46.6007 230.186 41.8139 172.41 42.0309 171.302C42.288 169.875 59.4133 102.8 59.4133 102.8H36.3587C36.3587 102.8 18.1937 165.32 17.5425 171.325C16.4858 181.075 22.4608 230.523 22.4608 230.523Z" fill="black"/>
<path d="M44.4299 224.74C43.0019 224.637 41.5738 224.654 40.1286 224.631C38.6834 224.608 37.2725 224.631 35.833 224.631C32.9769 224.66 30.1208 224.7 27.2646 224.785C26.4821 224.785 25.6995 224.831 24.9169 224.865C24.1343 224.9 23.2489 225.048 22.4149 225.077C22.4013 225.077 22.3882 225.082 22.3786 225.092C22.3689 225.101 22.3635 225.114 22.3635 225.128C22.3635 225.142 22.3689 225.155 22.3786 225.164C22.3882 225.174 22.4013 225.179 22.4149 225.179C23.1175 225.179 23.8201 225.288 24.5228 225.311C25.2254 225.333 25.9851 225.311 26.7163 225.311C28.1443 225.311 29.5724 225.311 31.0062 225.311C33.8623 225.282 36.7184 225.248 39.5745 225.128C41.1911 225.059 42.8248 225.042 44.4299 224.877C44.4435 224.871 44.455 224.862 44.4632 224.849C44.4713 224.837 44.4756 224.823 44.4756 224.808C44.4756 224.794 44.4713 224.779 44.4632 224.767C44.455 224.755 44.4435 224.745 44.4299 224.74Z" fill="#171823"/>
<path d="M54.3292 108.194C52.2671 115.484 50.3821 122.842 48.537 130.195C46.692 137.547 44.8469 144.911 43.0133 152.27C42.0993 155.95 41.1834 159.63 40.2657 163.31C39.3746 166.889 38.3406 170.491 38.1179 174.196C37.8951 177.901 38.3749 181.754 38.6891 185.499C39.0033 189.244 39.3232 193.035 39.6545 196.796C40.3171 204.332 40.9511 211.873 41.768 219.391C41.8708 220.333 41.9736 221.275 42.0707 222.217C42.0707 222.233 42.0774 222.249 42.0891 222.261C42.1009 222.273 42.1169 222.279 42.1336 222.279C42.1502 222.279 42.1662 222.273 42.178 222.261C42.1898 222.249 42.1964 222.233 42.1964 222.217C41.6937 214.681 41.1739 207.146 40.5741 199.611C40.2695 195.843 39.9629 192.077 39.6545 188.314C39.3403 184.552 38.9062 180.784 38.7862 177.011C38.6662 173.237 39.3574 169.561 40.2828 165.885C41.2082 162.208 42.0879 158.68 42.9904 155.084C44.8298 147.724 46.6672 140.366 48.5027 133.009C50.5477 124.766 52.5927 116.511 54.3978 108.217C54.4008 108.208 54.4001 108.198 54.3958 108.189C54.3915 108.181 54.384 108.174 54.3749 108.171C54.3658 108.168 54.3559 108.169 54.3473 108.173C54.3388 108.178 54.3323 108.185 54.3292 108.194Z" fill="#171823"/>
<path d="M59.4133 102.771C59.4133 102.771 52.0673 131.559 46.9263 151.825L37.1355 102.771H59.4133Z" fill="#171823"/>
<path d="M34.4277 249.897C35.753 250.308 74.522 249.475 75.9386 248.527C76.4813 248.179 74.4535 211.462 74.4535 211.462L50.1935 211.93L51.3703 236.477C51.3703 236.477 37.0897 243.247 35.6159 244.468C34.1421 245.69 33.0968 249.486 34.4277 249.897Z" fill="#AD6359"/>
<path d="M34.4279 249.897C35.7532 250.308 74.5222 249.469 75.9388 248.527C76.1102 248.419 76.0645 244.788 75.9388 239.839C68.9071 241.015 43.4247 244.868 41.4711 243.721C40.1116 242.921 41.3169 241.671 42.4308 240.826C39.2262 242.425 36.2387 243.96 35.6218 244.474C34.1766 245.673 33.097 249.486 34.4279 249.897Z" fill="#171823"/>
<path d="M36.3699 102.765C36.3699 102.765 37.0382 113.771 39.6716 122.46C39.8829 123.179 40.1114 123.887 40.357 124.566C42.6794 125.471 44.9145 126.585 47.0346 127.894C47.0346 127.894 48.6969 169.995 48.6683 172.609C48.5598 182.394 51.0618 230.037 51.0618 230.037L75.3959 229.809C75.3959 229.809 72.8768 175.932 72.8654 172.347C72.8654 168.882 71.2089 147.018 69.7408 128.06C69.7408 128.06 71.9058 122.009 71.6658 118.926C71.0946 111.505 67.7587 102.748 67.7587 102.748L36.3699 102.765Z" fill="black"/>
<path d="M44.1672 119.434C44.1158 118.823 44.0587 118.213 43.9959 117.596C43.8874 116.454 43.7274 115.353 43.596 114.234C43.2933 111.688 42.9791 109.136 42.5564 106.607C42.5564 106.544 42.4479 106.556 42.4479 106.607C42.4936 107.623 42.5507 108.634 42.6364 109.644C42.7221 110.654 42.762 111.671 42.8477 112.681C43.0134 114.69 43.179 116.677 43.4189 118.698C43.5103 119.468 43.9045 120.861 42.7963 121.038C41.9109 121.175 41.3226 120.285 41.0826 119.554C40.8685 118.64 40.7253 117.71 40.6542 116.774C40.5343 115.758 40.4314 114.742 40.3515 113.72C40.163 111.505 39.9459 109.296 39.7174 107.081C39.7174 107.018 39.6089 107.03 39.6032 107.081C39.546 109.364 39.5403 111.585 39.706 113.846C39.786 114.926 39.8869 116.003 40.0087 117.077C40.0601 118.106 40.2523 119.124 40.58 120.102C40.7127 120.485 40.9389 120.828 41.2382 121.102C41.5374 121.375 41.9002 121.569 42.2936 121.666H42.345C42.3341 121.671 42.3249 121.679 42.3187 121.689C42.3126 121.7 42.3098 121.711 42.3108 121.723C42.3108 122.083 42.2708 122.443 42.3108 122.802C42.3508 123.162 42.3793 123.51 42.425 123.858C42.472 124.219 42.5446 124.576 42.6421 124.926C42.6861 125.093 42.7415 125.257 42.8077 125.417C42.8856 125.573 42.9714 125.726 43.0648 125.873C43.0708 125.887 43.0813 125.897 43.0944 125.904C43.1075 125.91 43.1223 125.912 43.1365 125.909C43.1507 125.905 43.1632 125.897 43.172 125.885C43.1808 125.874 43.1853 125.859 43.1847 125.845V125.668C43.1933 125.563 43.1933 125.458 43.1847 125.354C43.1847 125.177 43.139 125.006 43.1105 124.835C43.0591 124.492 42.9848 124.149 42.9106 123.813C42.8363 123.476 42.7849 123.128 42.7221 122.785C42.6592 122.443 42.5564 122.089 42.4936 121.735C42.4936 121.735 42.4936 121.735 42.4936 121.701C42.8159 121.735 43.1411 121.67 43.4251 121.514C43.7091 121.357 43.9383 121.118 44.0816 120.827C44.2302 120.378 44.2597 119.898 44.1672 119.434Z" fill="#171823"/>
<path d="M49.0055 128.728C48.281 128.171 47.5174 127.668 46.7206 127.221C45.8802 126.715 45.0082 126.263 44.1101 125.868C42.3507 125.108 40.5343 124.583 38.7178 123.984C38.6663 123.984 38.6264 124.058 38.6835 124.075C40.4429 124.777 42.1108 125.708 43.8245 126.536C44.6585 126.947 45.5039 127.335 46.3607 127.712C47.2176 128.088 48.0744 128.528 48.937 128.853C49.0055 128.876 49.0569 128.773 49.0055 128.728Z" fill="#171823"/>
<path d="M62.7435 113.395C61.5055 113.382 60.2738 113.217 59.0762 112.904C58.505 112.761 57.9795 112.584 57.4368 112.407C56.9002 112.258 56.3977 112.006 55.9574 111.665C55.1234 110.946 54.7349 109.81 54.3694 108.811C53.975 107.677 53.6544 106.52 53.4097 105.346C53.4097 105.288 53.3126 105.306 53.3126 105.346C53.2833 106.674 53.4508 107.999 53.8096 109.279C54.1066 110.369 54.5122 111.562 55.3918 112.344C56.3666 113.074 57.5348 113.501 58.7506 113.572C60.0803 113.727 61.4245 113.708 62.7492 113.514C62.7597 113.508 62.7682 113.499 62.7739 113.488C62.7797 113.477 62.7824 113.465 62.7818 113.453C62.7812 113.441 62.7774 113.429 62.7706 113.418C62.7639 113.408 62.7545 113.4 62.7435 113.395Z" fill="#171823"/>
<path d="M74.3222 225.094C72.8942 224.991 71.4661 225.008 70.0266 224.991C68.5871 224.974 67.1705 224.991 65.731 224.991C62.8749 225.02 60.0187 225.065 57.1626 225.145C56.38 225.145 55.5975 225.191 54.8149 225.225C54.0323 225.259 53.1412 225.408 52.3072 225.442C52.2971 225.445 52.2884 225.452 52.2822 225.461C52.276 225.469 52.2727 225.48 52.2727 225.491C52.2727 225.501 52.276 225.512 52.2822 225.52C52.2884 225.529 52.2971 225.536 52.3072 225.539C53.0098 225.539 53.7181 225.653 54.4207 225.67C55.1233 225.687 55.8774 225.699 56.6085 225.699C58.0423 225.699 59.4647 225.699 60.9041 225.699C63.7603 225.699 66.6164 225.636 69.4725 225.522C71.0834 225.453 72.7171 225.431 74.3279 225.271C74.3396 225.27 74.351 225.268 74.3616 225.263C74.3722 225.258 74.3817 225.251 74.3897 225.243C74.3977 225.234 74.4039 225.224 74.408 225.213C74.4121 225.203 74.414 225.191 74.4136 225.179C74.4132 225.168 74.4106 225.156 74.4058 225.146C74.401 225.135 74.3941 225.126 74.3857 225.118C74.3772 225.11 74.3672 225.104 74.3563 225.099C74.3454 225.095 74.3338 225.093 74.3222 225.094Z" fill="#171823"/>
<path d="M71.3518 221.926C71.4295 221.921 71.5025 221.886 71.5548 221.829C71.6072 221.771 71.6348 221.695 71.6317 221.617L66.1536 127.335C66.2222 126.918 67.7759 121.655 67.913 118.966C68.0558 116.112 65.114 105.037 64.9883 104.564C64.967 104.489 64.9174 104.426 64.8502 104.388C64.783 104.349 64.7034 104.339 64.6285 104.358C64.5907 104.367 64.5551 104.384 64.524 104.407C64.4928 104.431 64.4666 104.46 64.4469 104.493C64.4272 104.527 64.4144 104.564 64.4093 104.603C64.4042 104.641 64.4068 104.68 64.4171 104.718C64.4457 104.832 67.4617 116.18 67.3189 118.932C67.1761 121.684 65.571 127.221 65.5653 127.266C65.5595 127.312 71.0547 221.646 71.0547 221.646C71.0591 221.722 71.0923 221.793 71.1476 221.845C71.2028 221.897 71.2759 221.926 71.3518 221.926Z" fill="#171823"/>
<path d="M51.8673 70.0154C52.4601 70.1519 53.0795 70.1161 53.6525 69.9122C54.2255 69.7083 54.7281 69.3448 55.1011 68.8646C55.4741 68.3845 55.7018 67.8077 55.7573 67.2024C55.8129 66.5971 55.694 65.9885 55.4147 65.4486C56.0494 65.5765 56.7086 65.4907 57.2894 65.2046C57.8702 64.9185 58.3398 64.4483 58.6249 63.8673C58.8976 63.2373 58.9289 62.5291 58.713 61.8776C58.497 61.226 58.0489 60.6765 57.4539 60.3337C57.9802 60.7102 58.3628 61.2541 58.5393 61.8764C58.7157 62.4987 58.6754 63.1624 58.425 63.7588C58.2068 64.22 57.8561 64.6059 57.4176 64.8672C56.9792 65.1284 56.4728 65.2533 55.963 65.2259C56.4199 65.068 56.8393 64.8177 57.195 64.4907C57.5508 64.1636 57.8353 63.7668 58.0309 63.325C58.2315 62.8267 58.2806 62.2803 58.1718 61.7543C58.0631 61.2283 57.8014 60.746 57.4197 60.368C57.884 59.947 58.2427 59.4228 58.467 58.8378C58.6913 58.2527 58.7747 57.6231 58.7106 56.9999C58.6338 56.4747 58.4054 55.9832 58.0534 55.5857C57.7013 55.1883 57.2409 54.9021 56.7285 54.7622C57.0672 54.2718 57.2551 53.6932 57.2689 53.0975C57.2827 52.5018 57.1218 51.9151 56.806 51.4096C56.4903 50.9042 56.0335 50.5021 55.492 50.2528C54.9504 50.0036 54.3477 49.9181 53.7581 50.0069C53.9665 49.6311 54.0768 49.2088 54.0787 48.7792C54.0807 48.3495 53.9743 47.9262 53.7694 47.5485C53.5645 47.1707 53.2676 46.8507 52.9062 46.6179C52.5448 46.3851 52.1306 46.247 51.7017 46.2165C51.8044 45.9029 51.8142 45.5665 51.7301 45.2475C51.646 44.9285 51.4715 44.6405 51.2276 44.4183C50.9372 44.1728 50.6006 43.9878 50.2377 43.8741C49.8747 43.7604 49.4927 43.7203 49.114 43.7561C49.034 43.4208 48.8706 43.111 48.6389 42.8556C48.4073 42.6002 48.1149 42.4072 47.7888 42.2947C47.3654 42.1625 46.9087 42.1853 46.5005 42.359C46.0923 42.5326 45.7593 42.8457 45.561 43.2423C44.55 42.5402 43.3504 41.9179 42.088 42.1006C41.5642 42.1483 41.066 42.3484 40.6548 42.6761C40.2437 43.0038 39.9376 43.4448 39.7745 43.9445C39.3097 43.7109 38.8009 43.5776 38.2812 43.5532C37.7615 43.5288 37.2424 43.6138 36.7577 43.8027C36.273 43.9916 35.8334 44.2802 35.4675 44.6498C35.1015 45.0194 34.8174 45.4618 34.6335 45.9482C34.1842 45.8705 33.7223 45.9112 33.2936 46.0664C32.8648 46.2215 32.484 46.4858 32.1887 46.833C31.764 47.2964 31.4599 47.8571 31.3033 48.4656C30.8958 48.4257 30.486 48.5143 30.1315 48.7191C29.777 48.9239 29.4956 49.2345 29.3268 49.6073C29.1809 49.96 29.1154 50.3408 29.1352 50.722C29.1549 51.1031 29.2594 51.4751 29.4411 51.8108C29.4106 52.0296 29.3305 52.2385 29.2069 52.4217C28.8979 52.8879 28.7095 53.4236 28.6587 53.9805C28.6078 54.5374 28.6961 55.0983 28.9155 55.6127C28.661 55.8217 28.4547 56.0832 28.3108 56.3793C28.1668 56.6754 28.0886 56.9991 28.0816 57.3282C28.0745 57.6573 28.1388 57.9841 28.2699 58.2861C28.401 58.5881 28.5959 58.8581 28.8413 59.0778C28.4768 59.6546 28.3539 60.3515 28.4993 61.018C28.6446 61.6845 29.0465 62.2671 29.6181 62.6399C29.365 63.1198 29.2176 63.6484 29.1861 64.19C29.1546 64.7316 29.2396 65.2737 29.4354 65.7796C29.564 66.1876 29.8095 66.5489 30.1415 66.8188C30.4735 67.0887 30.8774 67.2554 31.3033 67.2981C31.2186 67.6131 31.2527 67.9483 31.399 68.2398C31.5454 68.5314 31.7939 68.759 32.0973 68.8794C32.3184 68.981 32.5503 69.0576 32.7884 69.1077C33.1026 69.1321 33.41 69.2113 33.6967 69.3418C33.9537 69.5073 34.0451 69.8498 34.1994 70.0953C34.3105 70.2744 34.4408 70.4409 34.5878 70.5919C35.1415 71.1449 35.868 71.4918 36.6464 71.5749C37.4248 71.6579 38.2082 71.4722 38.8663 71.0486C39.4661 72.002 40.6771 72.1903 41.7224 72.0419C42.0632 71.9834 42.3978 71.8936 42.722 71.7736C43.0079 71.6494 43.3254 71.6175 43.6303 71.6823C43.8245 71.7337 44.013 71.8307 44.2015 71.8821C44.5224 71.9415 44.8521 71.9337 45.1697 71.859C45.4873 71.7843 45.7859 71.6444 46.0466 71.4482C47.7203 73.9029 51.1819 72.6756 51.8673 70.0154ZM29.3897 50.0355C29.5057 49.6256 29.7459 49.2617 30.0773 48.9939C30.4088 48.726 30.8151 48.5674 31.2404 48.5398C31.2375 48.5759 31.2375 48.6122 31.2404 48.6483C31.2404 48.6483 30.972 48.7453 30.8463 48.8081C30.4992 48.9898 30.1965 49.2456 29.9596 49.5573C29.7226 49.8691 29.5573 50.2292 29.4753 50.612C29.4315 50.8434 29.4162 51.0792 29.4296 51.3142V51.3998C29.2906 50.9574 29.2767 50.4852 29.3897 50.0355ZM47.943 42.974C47.5756 42.8007 47.1637 42.7445 46.7632 42.8129C46.3627 42.8813 45.9928 43.0711 45.7038 43.3565L45.6467 43.3165C46.1494 42.6315 46.7892 42.1748 47.7317 42.4659C48.0207 42.5619 48.2788 42.7331 48.4796 42.9618C48.6804 43.1906 48.8166 43.4687 48.8741 43.7675C48.644 43.4213 48.3214 43.1465 47.943 42.974ZM46.138 71.3569C46.8468 71.9582 47.7622 72.26 48.69 72.1982C49.6177 72.1364 50.4849 71.7159 51.1076 71.0258C49.8624 72.6356 47.8231 73.3035 46.138 71.3569Z" fill="#171823"/>
<path d="M43.4189 76.8998C42.1108 82.6597 36.29 106.807 31.4232 108.165C26.5563 109.524 21.7466 106.35 21.5981 102.314C21.4267 97.9186 34.5592 80.422 37.7752 76.6258C40.8712 73.018 44.727 71.2369 43.4189 76.8998Z" fill="#AD6359"/>
<path d="M40.9111 91.2569L26.8533 88.7794C26.8533 88.7794 36.4384 76.3747 40.2828 73.5204C44.6126 70.3122 45.3095 73.2236 44.6012 78.2985C43.8929 83.3734 40.9111 91.2569 40.9111 91.2569Z" fill="#6C48DD"/>
<path d="M42.8934 77.0712C42.5124 76.7752 42.0912 76.535 41.6425 76.3577C41.9322 76.7444 42.2788 77.0851 42.6707 77.3681C43.0533 77.6633 43.4765 77.9017 43.9274 78.0759C43.6309 77.6948 43.283 77.3567 42.8934 77.0712ZM34.645 87.6149C34.3538 87.998 34.1156 88.4185 33.9366 88.8651C34.6985 88.2674 35.2895 87.4799 35.6503 86.5817C35.2703 86.8794 34.9322 87.227 34.645 87.6149ZM35.6275 80.3708C35.1484 80.429 34.6806 80.5579 34.2394 80.7532C35.2006 80.8658 36.1746 80.7281 37.0669 80.3536C36.5889 80.2878 36.1038 80.2936 35.6275 80.3708ZM41.9109 86.2905C41.8506 85.8122 41.7217 85.345 41.5282 84.9034C41.4624 85.3787 41.4624 85.8608 41.5282 86.3362C41.5865 86.8168 41.7155 87.2861 41.9109 87.7291C41.9904 87.2456 41.9962 86.7529 41.9281 86.2677L41.9109 86.2905ZM28.8128 86.6559C28.8128 86.5588 28.8127 86.4561 28.7613 86.359L28.4529 86.7472C28.5128 87.214 28.6398 87.6696 28.8299 88.1001C28.8986 87.6212 28.8986 87.1349 28.8299 86.6559H28.8128Z" fill="white"/>
<path d="M29.2868 86.5359C29.7894 86.5359 34.1764 87.2495 35.1247 87.4207C36.0729 87.592 39.9687 88.2713 40.934 88.5282C40.9414 88.5311 40.9478 88.5363 40.9523 88.5429C40.9568 88.5495 40.9592 88.5573 40.9592 88.5653C40.9592 88.5733 40.9568 88.5811 40.9523 88.5877C40.9478 88.5943 40.9414 88.5994 40.934 88.6024C39.9401 88.5282 36.0101 87.8603 35.039 87.7004C34.0679 87.5406 29.7437 86.7528 29.2753 86.5987C29.2353 86.5873 29.2525 86.5359 29.2868 86.5359Z" fill="#171823"/>
<path opacity="0.1" d="M44.6241 78.2757C43.9101 83.3506 40.9111 91.2341 40.9111 91.2341L30.8918 89.4645L43.8872 72.3389C44.9611 72.9725 45.0468 75.2445 44.6241 78.2757Z" fill="black"/>
<path d="M68.5128 104.027H35.5646L37.0383 95.2414C37.0383 95.2414 34.4907 91.8163 34.6734 88.0544C34.862 84.0584 42.5621 73.4691 43.1847 72.8811C45.6695 70.5063 49.7652 70.3179 51.7531 72.002C62.5549 81.0329 68.5128 104.027 68.5128 104.027Z" fill="#6C48DD"/>
<path d="M35.656 86.5874C35.4806 87.0357 35.2421 87.4566 34.9477 87.8376L34.6621 88.1858C34.6621 88.1458 34.6621 88.1116 34.6621 88.0773C34.6741 87.8856 34.6989 87.6949 34.7364 87.5065C34.9996 87.1596 35.309 86.8504 35.656 86.5874Z" fill="#6C48DD"/>
<path d="M39.1119 104.05H38.9862C38.8496 103.681 38.7539 103.298 38.7006 102.908C38.632 102.433 38.632 101.95 38.7006 101.475C38.8941 101.917 39.023 102.384 39.0833 102.862C39.1359 103.256 39.1455 103.654 39.1119 104.05Z" fill="#6C48DD"/>
<path d="M41.5625 86.3362C41.4967 85.8608 41.4967 85.3787 41.5625 84.9033C41.756 85.345 41.8849 85.8121 41.9452 86.2905C42.0168 86.7673 42.0168 87.2522 41.9452 87.729C41.7498 87.2861 41.6208 86.8167 41.5625 86.3362Z" fill="#6C48DD"/>
<path d="M42.4765 93.9171C42.0346 94.1105 41.5671 94.2393 41.0884 94.2996C40.6108 94.3654 40.1265 94.3654 39.6489 94.2996C40.0938 94.1077 40.5627 93.9771 41.0427 93.9114C41.5184 93.8447 42.0013 93.8467 42.4765 93.9171Z" fill="#6C48DD"/>
<path d="M43.9272 78.0759C43.4764 77.9017 43.0532 77.6633 42.6705 77.3681C42.2787 77.0851 41.932 76.7444 41.6423 76.3577C42.0911 76.535 42.5123 76.7752 42.8933 77.0712C43.2829 77.3567 43.6308 77.6948 43.9272 78.0759Z" fill="#6C48DD"/>
<path d="M47.0119 71.0259C46.9719 71.0658 46.9262 71.0944 46.8862 71.1286L46.9205 71.043L47.0119 71.0259Z" fill="#6C48DD"/>
<path d="M48.0174 98.324C47.658 99.223 47.0667 100.011 46.3037 100.607C46.4837 100.16 46.7239 99.7395 47.0177 99.3572C47.3016 98.9683 47.638 98.6206 48.0174 98.324Z" fill="#6C48DD"/>
<path d="M50.0964 89.4757C49.6468 89.3027 49.2253 89.0642 48.8454 88.7679C48.4546 88.484 48.1064 88.1457 47.8115 87.7632C48.2619 87.9385 48.685 88.1768 49.0682 88.471C49.456 88.7566 49.802 89.0948 50.0964 89.4757Z" fill="#6C48DD"/>
<path d="M50.6962 80.599C50.2545 80.7942 49.7871 80.925 49.3081 80.9872C48.8306 81.053 48.3462 81.053 47.8687 80.9872C48.3106 80.7927 48.778 80.662 49.2567 80.599C49.7339 80.5275 50.2191 80.5275 50.6962 80.599Z" fill="#6C48DD"/>
<path d="M54.0607 74.2283C53.1842 74.5867 52.2308 74.7164 51.2903 74.605C51.7324 74.4123 52.1998 74.2835 52.6784 74.2225C53.1268 74.1587 53.5814 74.1491 54.0322 74.194L54.0607 74.2283Z" fill="#6C48DD"/>
<path d="M56.18 93.4319C55.7391 93.6238 55.274 93.7544 54.7976 93.8201C54.3203 93.8886 53.8355 93.8886 53.3582 93.8201C53.7972 93.6241 54.2632 93.4952 54.7405 93.4376C55.2174 93.3642 55.7026 93.3623 56.18 93.4319Z" fill="#6C48DD"/>
<path d="M57.1282 84.5549C56.9541 85.0056 56.7155 85.4286 56.4199 85.8108C56.1372 86.2009 55.7985 86.5472 55.4146 86.8383C55.5877 86.389 55.8264 85.9677 56.1229 85.5882C56.4085 85.1989 56.7468 84.8512 57.1282 84.5549Z" fill="#6C48DD"/>
<path d="M57.3055 101.578C57.3713 102.055 57.3713 102.539 57.3055 103.016C56.9202 102.118 56.7803 101.133 56.8999 100.162C57.0984 100.614 57.2349 101.09 57.3055 101.578Z" fill="#6C48DD"/>
<path d="M64.5542 95.9721C64.1046 95.799 63.683 95.5605 63.3032 95.2642C62.9101 94.9831 62.5615 94.6444 62.2693 94.2595C62.7181 94.4403 63.1408 94.6803 63.526 94.9731C63.9133 95.2569 64.2594 95.5931 64.5542 95.9721Z" fill="#6C48DD"/>
<path d="M66.4677 102.822C66.0253 103.014 65.558 103.143 65.0796 103.205C64.6023 103.273 64.1175 103.273 63.6401 103.205C64.0791 103.009 64.5451 102.88 65.0225 102.822C65.5014 102.748 65.9888 102.748 66.4677 102.822Z" fill="#6C48DD"/>
<path d="M48.7312 93.3975C47.1499 93.4198 45.5734 93.5764 44.0186 93.8656C43.2418 94.0197 42.4763 94.2138 41.7337 94.4364C41.351 94.5449 40.9683 94.6362 40.5913 94.7276C40.1943 94.8325 39.7852 94.8843 39.3746 94.8817C39.3403 94.8817 39.3346 94.9388 39.3746 94.9445C39.7529 94.9991 40.1348 95.0258 40.517 95.0244C40.9012 95.0098 41.2835 94.962 41.6595 94.8817C42.4478 94.7333 43.2303 94.5449 44.0186 94.385C45.6066 94.0654 47.1889 93.7457 48.7883 93.5573C48.8112 93.5402 48.8055 93.3975 48.7312 93.3975Z" fill="#171823"/>
<path d="M52.4386 95.3556C51.1694 95.0796 49.8832 94.8889 48.5885 94.7847C47.943 94.7334 47.2976 94.7277 46.6464 94.7391C46.3322 94.7391 46.0237 94.7391 45.7153 94.779C45.4068 94.819 45.0298 94.8704 44.6871 94.8818C44.6528 94.8818 44.6471 94.9446 44.6871 94.9446C45.0127 94.9446 45.3326 95.0074 45.6524 95.0245L46.6235 95.0816C47.269 95.1273 47.9145 95.1729 48.56 95.2072C49.8567 95.2757 51.1419 95.3556 52.4329 95.4755C52.5014 95.4869 52.5071 95.367 52.4386 95.3556Z" fill="#171823"/>
<path d="M57.3054 101.578C57.2378 101.1 57.1072 100.634 56.917 100.191C56.7973 101.161 56.9373 102.146 57.3225 103.045C57.3853 102.558 57.3796 102.064 57.3054 101.578ZM39.0719 102.862C39.0116 102.384 38.8827 101.917 38.6892 101.475C38.6206 101.95 38.6206 102.433 38.6892 102.908C38.7425 103.298 38.8382 103.681 38.9748 104.05H39.1005C39.1341 103.654 39.1245 103.256 39.0719 102.862ZM41.928 86.3076C41.8677 85.8293 41.7388 85.3621 41.5453 84.9204C41.4795 85.3958 41.4795 85.8779 41.5453 86.3533C41.6036 86.8339 41.7326 87.3032 41.928 87.7462C42.0036 87.2562 42.0036 86.7576 41.928 86.2677V86.3076ZM49.2569 80.6333C48.7781 80.6963 48.3107 80.827 47.8688 81.0215C48.3463 81.0873 48.8307 81.0873 49.3083 81.0215C49.7872 80.9593 50.2547 80.8285 50.6963 80.6333C50.22 80.5562 49.7349 80.5504 49.2569 80.6162V80.6333ZM41.0426 93.9456C40.5626 94.0113 40.0937 94.1419 39.6489 94.3338C40.1264 94.3997 40.6108 94.3997 41.0883 94.3338C41.567 94.2736 42.0345 94.1448 42.4764 93.9514C42.002 93.8752 41.5192 93.8675 41.0426 93.9285V93.9456ZM65.0341 102.851C64.5567 102.909 64.0907 103.037 63.6517 103.233C64.1291 103.302 64.6138 103.302 65.0912 103.233C65.5696 103.172 66.0368 103.043 66.4793 102.851C65.9982 102.766 65.5067 102.756 65.0227 102.822L65.0341 102.851ZM54.752 93.4661C54.2747 93.5237 53.8087 93.6526 53.3697 93.8486C53.8471 93.9171 54.3318 93.9171 54.8092 93.8486C55.2855 93.7829 55.7506 93.6523 56.1915 93.4604C55.7112 93.384 55.2221 93.3802 54.7406 93.449L54.752 93.4661ZM54.0437 74.2112C53.5929 74.1663 53.1384 74.1759 52.6899 74.2397C52.2114 74.3007 51.744 74.4295 51.3018 74.6222C52.2424 74.7336 53.1957 74.6039 54.0723 74.2455L54.0437 74.2112ZM46.932 71.0601L46.8977 71.1457C46.9377 71.1115 46.9834 71.0829 47.0234 71.043L46.932 71.0601ZM34.7535 87.5178C34.716 87.7063 34.6912 87.897 34.6792 88.0887C34.6792 88.1229 34.6792 88.1572 34.6792 88.1971L34.9648 87.8489C35.2592 87.468 35.4977 87.047 35.6731 86.5988C35.3232 86.8557 35.0099 87.1591 34.742 87.5007L34.7535 87.5178ZM56.1344 85.6283C55.8373 85.9949 55.5949 86.4025 55.4147 86.8385C55.7986 86.5473 56.1373 86.2011 56.42 85.811C56.7156 85.4288 56.9542 85.0057 57.1283 84.5551C56.7454 84.8583 56.4069 85.2138 56.123 85.6112L56.1344 85.6283ZM46.9948 99.3745C46.701 99.7568 46.4608 100.177 46.2808 100.625C47.0438 100.028 47.6351 99.2403 47.9944 98.3412C47.6223 98.6338 47.2918 98.9756 47.0119 99.3573L46.9948 99.3745ZM42.8763 77.1112C42.4953 76.8152 42.0741 76.5749 41.6253 76.3976C41.915 76.7843 42.2617 77.125 42.6535 77.408C43.0361 77.7032 43.4594 77.9416 43.9102 78.1159C43.6219 77.7218 43.2796 77.3701 42.8934 77.0712L42.8763 77.1112ZM49.0512 88.5282C48.668 88.234 48.2449 87.9957 47.7945 87.8204C48.0894 88.2029 48.4376 88.5412 48.8284 88.8251C49.2083 89.1213 49.6298 89.3599 50.0794 89.5329C49.7944 89.1329 49.454 88.7754 49.0684 88.4712L49.0512 88.5282ZM63.5318 95.0189C63.1475 94.7096 62.7227 94.4542 62.2694 94.2596C62.5611 94.6465 62.9097 94.9872 63.3033 95.27C63.6834 95.5643 64.105 95.8009 64.5543 95.9722C64.2673 95.5907 63.929 95.2507 63.5489 94.9618L63.5318 95.0189Z" fill="white"/>
<path d="M54.7178 73.8571C58.785 78.1443 75.9674 98.0614 74.208 103.262C72.5743 108.097 65.3426 106.95 62.5493 104.033C58.4936 99.8025 52.7243 83.1621 51.3647 78.384C50.0624 73.8343 50.725 69.6385 54.7178 73.8571Z" fill="#AD6359"/>
<path d="M54.7464 90.2637L68.5129 86.5474C68.5129 86.5474 57.8653 75.0675 53.781 72.5672C49.177 69.7529 48.7428 72.7156 49.9024 77.7049C51.062 82.6941 54.7464 90.2637 54.7464 90.2637Z" fill="#6C48DD"/>
<path d="M68.5128 86.5703L54.7463 90.2637C54.7463 90.2637 51.0562 82.677 49.9024 77.7049C48.7485 72.7328 49.1769 69.7472 53.781 72.5672C54.0095 72.7099 54.2665 72.8812 54.5407 73.0753L54.872 73.3264C56.7647 74.8375 58.5744 76.4496 60.2929 78.1559L60.4015 78.2586C61.9495 79.76 63.4975 81.3298 64.817 82.6942C65.0112 82.8883 65.194 83.0824 65.3883 83.265C67.2276 85.1831 68.5128 86.5703 68.5128 86.5703Z" fill="#6C48DD"/>
<path d="M68.5128 86.5703L54.7463 90.2637C54.7463 90.2637 51.0562 82.677 49.9024 77.7049C48.7485 72.7328 49.1769 69.7472 53.781 72.5672C54.0095 72.7099 54.2665 72.8812 54.5407 73.0753L54.872 73.3264C56.7647 74.8375 58.5744 76.4496 60.2929 78.1559L60.4015 78.2586C61.9495 79.76 63.4975 81.3298 64.817 82.6942C65.0112 82.8883 65.194 83.0824 65.3883 83.265C67.2276 85.1831 68.5128 86.5703 68.5128 86.5703Z" fill="#6C48DD"/>
<path d="M65.8109 85.5711C65.4289 85.2781 65.0079 85.0398 64.5599 84.8632C64.8513 85.2469 65.1978 85.5855 65.5881 85.868C65.9692 86.1654 66.3928 86.404 66.8448 86.5758C66.5484 86.1947 66.2004 85.8565 65.8109 85.5711ZM56.1001 85.6111C55.8136 85.985 55.5827 86.3984 55.4146 86.8384C55.7985 86.5472 56.1373 86.201 56.42 85.8109C56.7156 85.4287 56.9542 85.0056 57.1283 84.555C56.7453 84.8582 56.4069 85.2137 56.1229 85.6111H56.1001ZM52.6727 74.2225C52.1942 74.2835 51.7268 74.4123 51.2847 74.605C51.7635 74.6793 52.251 74.6793 52.7299 74.605C53.2072 74.5474 53.6732 74.4185 54.1122 74.2225C53.6365 74.1573 53.1542 74.1573 52.6785 74.2225H52.6727ZM59.1162 79.6399C59.053 79.1597 58.9223 78.6907 58.7277 78.247C58.6081 79.2176 58.748 80.2024 59.1333 81.1013C59.2009 80.6162 59.1971 80.1239 59.1219 79.6399H59.1162Z" fill="white"/>
<path d="M65.9138 84.6521C65.4225 84.7091 61.1098 85.7938 60.2016 86.0564C59.2933 86.319 55.4547 87.3294 54.4893 87.6719C54.4436 87.6719 54.4893 87.7518 54.4893 87.7404C55.4718 87.5805 59.3276 86.5644 60.2815 86.3247C61.2355 86.0849 65.474 84.9089 65.9195 84.7148C65.9766 84.6977 65.9481 84.6463 65.9138 84.6521Z" fill="#171823"/>
<path d="M56.1058 89.921C55.6431 90.0809 55.1747 90.2293 54.7063 90.3777V90.3206C53.1889 87.369 51.9239 84.2945 50.9248 81.1299L52.867 85.6967L54.8148 90.2636L54.7292 90.2236C55.1861 90.1208 55.6431 90.0181 56.1058 89.9268V89.921Z" fill="#171823"/>
<path d="M50.759 82.3003C51.2411 82.69 51.6312 83.1812 51.9015 83.7388C51.6205 83.5929 51.3735 83.3893 51.1766 83.1414C50.9798 82.8935 50.8375 82.6069 50.759 82.3003Z" fill="#171823"/>
<path d="M49.7025 73.4919C49.4454 74.0628 45.801 77.3851 43.0877 76.7115C42.2023 76.4889 43.1962 71.6081 43.1962 71.6081V71.2313L43.0705 65.9566L49.771 63.3307L50.7307 62.9939C50.7307 62.9939 50.6678 64.4439 50.5764 66.2421V66.4989C50.5824 66.5959 50.5824 66.6931 50.5764 66.7901C50.5764 67.0584 50.5764 67.3609 50.5365 67.6064C50.4965 67.8519 50.5365 68.0174 50.4908 68.24C50.4451 68.4627 50.4565 68.6682 50.4393 68.8908C50.3011 70.4398 50.0549 71.9772 49.7025 73.4919Z" fill="#AD6359"/>
<path d="M50.702 62.9939C50.702 62.9939 50.6392 64.4439 50.5478 66.2421V66.4989C50.5537 66.5959 50.5537 66.6931 50.5478 66.7901C50.5478 67.0584 50.5478 67.3609 50.5078 67.6064C50.4678 67.8519 50.5078 68.0174 50.4621 68.2401C50.4164 68.4627 50.4278 68.6682 50.4107 68.8908C50.3364 69.6501 50.245 70.415 50.1479 71.0943C48.1144 71.0943 45.1554 70.6605 43.1276 68.3371L43.0762 65.9566L49.7709 63.3307L50.702 62.9939Z" fill="#171823"/>
<path d="M54.752 57.5593C56.3743 66.693 51.0904 68.6796 49.1254 69.0278C47.3375 69.3475 41.2083 70.1695 38.6492 61.287C36.0901 52.4045 39.8259 48.7282 43.8759 47.8034C47.9259 46.8786 53.1297 48.4371 54.752 57.5593Z" fill="#AD6359"/>
<path d="M47.1946 49.3163C47.4978 50.0781 47.5655 50.9133 47.3888 51.7139C46.6748 53.8946 44.1271 53.6776 43.3902 54.5682C42.6534 55.4587 43.1789 56.9772 42.5563 57.8334C41.6994 59.0151 40.9226 58.3472 40.8426 59.0779C40.7626 59.8086 40.5912 62.132 39.7001 62.5373C38.809 62.9426 32.7255 48.4429 44.6298 47.3811C44.6298 47.3811 46.2007 46.4164 48.8512 47.4496C52.6212 48.9281 53.8265 53.5007 53.8265 53.5007C53.4087 53.4661 53.0034 53.3414 52.6384 53.1353C52.0043 52.7072 51.673 52.3647 51.2103 52.0964C50.4849 51.6682 50.1307 52.0964 49.3824 51.6739C48.2685 51.0745 47.1946 49.3163 47.1946 49.3163Z" fill="#171823"/>
<path d="M47.0234 48.8311C47.2783 49.3962 47.4698 49.9878 47.5946 50.595C47.7445 51.1844 47.7346 51.8031 47.566 52.3875C47.3208 52.9311 46.8864 53.3673 46.3436 53.6148C45.8067 53.9002 45.2012 54.0372 44.6299 54.3569C44.3328 54.5196 44.0859 54.7605 43.9159 55.0534C43.7756 55.3543 43.6979 55.6806 43.6874 56.0124C43.6937 56.6127 43.5399 57.2038 43.2419 57.725C43.0693 57.9702 42.8457 58.1753 42.5864 58.3261C42.3271 58.4768 42.0382 58.5697 41.7395 58.5984C41.1683 58.6783 40.46 58.5984 39.9116 58.9295C40.4828 58.6383 41.1226 58.7753 41.751 58.7411C42.0766 58.7224 42.3944 58.6343 42.6831 58.4827C42.9718 58.331 43.2246 58.1194 43.4247 57.862C43.7743 57.3152 43.9569 56.6784 43.9502 56.0295C43.9669 55.7371 44.0386 55.4505 44.1615 55.1847C44.3119 54.9423 44.5251 54.745 44.7785 54.6138C45.2926 54.3113 45.9209 54.1571 46.4921 53.8546C46.7817 53.707 47.0458 53.5143 47.2747 53.2837C47.5193 53.0597 47.7023 52.7767 47.8059 52.4617C47.9638 51.8353 47.946 51.1776 47.7545 50.5607C47.5789 49.9577 47.3335 49.3773 47.0234 48.8311Z" fill="#171823"/>
<path d="M47.3203 49.3391C47.5134 49.8828 47.7764 50.399 48.1029 50.8747C48.4322 51.3821 48.9056 51.7796 49.4624 52.0164C49.7399 52.1163 50.0271 52.1871 50.3192 52.2276C50.5792 52.2775 50.8203 52.398 51.0161 52.5759C51.1983 52.805 51.401 53.0171 51.6216 53.2095C51.8608 53.3819 52.1363 53.4972 52.4271 53.5463C52.1621 53.4435 51.9196 53.2904 51.713 53.0953C51.5173 52.8897 51.3413 52.666 51.1875 52.4274C50.9755 52.1929 50.6962 52.0294 50.3878 51.9593C50.1096 51.9141 49.8362 51.8434 49.5709 51.7481C49.0663 51.5187 48.6267 51.1675 48.2914 50.7263C47.9395 50.2842 47.6152 49.821 47.3203 49.3391Z" fill="#171823"/>
<path d="M40.7284 61.0644C40.7284 61.0644 38.4435 58.3643 37.2096 59.2034C35.9758 60.0426 37.8551 64.0785 39.4431 64.5124C39.6428 64.5814 39.8544 64.6094 40.0652 64.5948C40.2761 64.5802 40.4818 64.5232 40.67 64.4273C40.8583 64.3313 41.0252 64.1984 41.1609 64.0365C41.2966 63.8745 41.3981 63.6869 41.4595 63.4849L40.7284 61.0644Z" fill="#AD6359"/>
<path d="M37.781 60.3452V60.3852C38.8949 60.7277 39.5518 61.6753 40.0659 62.6686C39.9934 62.5664 39.8996 62.4811 39.791 62.4186C39.6823 62.3561 39.5614 62.3178 39.4366 62.3064C39.3118 62.295 39.186 62.3108 39.0678 62.3526C38.9496 62.3944 38.8419 62.4613 38.7521 62.5487C38.7488 62.5543 38.7471 62.5606 38.7473 62.5671C38.7475 62.5735 38.7495 62.5798 38.7531 62.5852C38.7566 62.5905 38.7617 62.5948 38.7676 62.5974C38.7734 62.6001 38.78 62.601 38.7864 62.6001C38.9709 62.5238 39.1745 62.5059 39.3696 62.5487C39.5646 62.5916 39.7419 62.6932 39.8774 62.8399C40.0954 63.0895 40.2869 63.3612 40.4486 63.6505C40.5058 63.7418 40.6771 63.6505 40.6314 63.5705V63.542C40.5058 62.1777 39.2662 60.3509 37.781 60.3452Z" fill="#171823"/>
<path d="M52.3072 55.687C52.0915 55.6852 51.876 55.6719 51.6617 55.647C51.4299 55.6637 51.199 55.6035 51.0048 55.4758C50.9521 55.4238 50.9179 55.356 50.9076 55.2828C50.8973 55.2095 50.9114 55.1349 50.9477 55.0705C51.0391 54.9544 51.1597 54.8647 51.2973 54.8105C51.4348 54.7563 51.5842 54.7397 51.7303 54.7622C52.0346 54.7632 52.3278 54.8771 52.5529 55.0819C52.5998 55.132 52.6315 55.1945 52.644 55.2621C52.6566 55.3296 52.6495 55.3993 52.6237 55.4629C52.5979 55.5266 52.5543 55.5815 52.4982 55.6212C52.4422 55.6609 52.3759 55.6837 52.3072 55.687Z" fill="#171823"/>
<path d="M46.1094 56.9827C46.3208 56.9256 46.5093 56.8342 46.7206 56.7543C46.9456 56.7077 47.1475 56.5847 47.2919 56.4061C47.3278 56.3425 47.3416 56.2689 47.3313 56.1966C47.321 56.1243 47.287 56.0575 47.2347 56.0065C47.1148 55.919 46.9732 55.8659 46.8252 55.8528C46.6773 55.8397 46.5285 55.8672 46.395 55.9323C46.1039 56.018 45.8553 56.2094 45.6982 56.4689C45.6659 56.5307 45.6524 56.6006 45.6592 56.6699C45.666 56.7393 45.6928 56.8052 45.7363 56.8597C45.7799 56.9141 45.8384 56.9547 45.9046 56.9765C45.9708 56.9984 46.042 57.0005 46.1094 56.9827Z" fill="#171823"/>
<path d="M47.8344 59.0151C47.8344 59.0151 47.7887 59.0551 47.7944 59.0836C47.9201 59.7116 47.96 60.4537 47.4231 60.7562C47.4231 60.7562 47.4231 60.8019 47.4231 60.7962C48.12 60.5793 48.0572 59.5917 47.8344 59.0151Z" fill="#171823"/>
<path d="M47.1547 58.4498C46.1265 58.5468 46.395 60.6019 47.349 60.5106C48.3029 60.4192 48.023 58.3699 47.1547 58.4498Z" fill="#171823"/>
<path d="M46.7663 58.6153C46.6007 58.7523 46.4522 58.9806 46.2408 59.032C46.0294 59.0834 45.7781 58.895 45.5839 58.7123C45.5839 58.7123 45.5496 58.7123 45.5553 58.7409C45.601 59.1348 45.801 59.5173 46.2351 59.523C46.6692 59.5287 46.8577 59.1405 46.9034 58.7352C46.9091 58.6553 46.8463 58.5582 46.7663 58.6153Z" fill="#171823"/>
<path d="M51.4619 58.1301C51.4619 58.1301 51.5133 58.1301 51.5133 58.1815C51.5704 58.8209 51.7475 59.5401 52.3473 59.6828V59.7228C51.6332 59.7057 51.4162 58.7466 51.4619 58.1301Z" fill="#171823"/>
<path d="M51.9473 57.3995C52.9641 57.194 53.2954 59.2377 52.3529 59.426C51.4104 59.6144 51.0962 57.5651 51.9473 57.3995Z" fill="#171823"/>
<path d="M52.3929 57.4624C52.5757 57.5423 52.7642 57.7136 52.9641 57.6964C53.1641 57.6793 53.324 57.4281 53.4325 57.1941C53.4325 57.1941 53.4325 57.1941 53.4668 57.1941C53.5411 57.5823 53.4668 58.0104 53.1126 58.1474C52.7585 58.2844 52.4786 57.9762 52.3186 57.5766C52.2844 57.548 52.3244 57.4281 52.3929 57.4624Z" fill="#171823"/>
<path d="M48.6857 64.0442C48.8513 64.1812 49.0227 64.3753 49.2569 64.3753C49.4943 64.3506 49.7238 64.2768 49.9309 64.1583C49.8514 64.293 49.7363 64.4031 49.5983 64.4766C49.4602 64.5501 49.3045 64.5842 49.1484 64.5751C49.0106 64.557 48.8818 64.4969 48.7795 64.4029C48.6773 64.3089 48.6066 64.1856 48.5771 64.0499C48.6114 64.0442 48.6628 64.0042 48.6857 64.0442Z" fill="#171823"/>
<path d="M51.0162 61.3726C51.0162 61.3726 51.279 62.3031 51.3475 62.7541C51.3475 62.794 51.2447 62.8283 51.0962 62.8568C50.7213 62.9811 50.3195 63 49.9346 62.9114C49.5498 62.8228 49.1967 62.6301 48.9141 62.3545C48.9077 62.3463 48.9044 62.3361 48.9045 62.3257C48.9047 62.3153 48.9085 62.3053 48.9151 62.2973C48.9218 62.2893 48.931 62.2839 48.9412 62.2818C48.9514 62.2797 48.962 62.2812 48.9712 62.286C49.5979 62.593 50.3067 62.6911 50.9933 62.5657C50.9933 62.4344 50.4849 60.9844 50.5592 60.973C50.9099 60.9528 51.2618 60.9816 51.6045 61.0586C51.1076 59.1063 50.3022 57.2453 49.8337 55.293C49.8312 55.2788 49.8337 55.2641 49.8407 55.2515C49.8477 55.2389 49.8589 55.2291 49.8723 55.2237C49.8857 55.2184 49.9005 55.2178 49.9143 55.2221C49.9281 55.2264 49.94 55.2353 49.948 55.2473C50.873 57.2121 51.6001 59.264 52.1186 61.3726C52.1758 61.6295 51.2047 61.424 51.0162 61.3726Z" fill="#171823"/>
<path d="M50.7591 62.6629C50.5804 63.0164 50.3126 63.3174 49.9823 63.5363C49.7978 63.6508 49.582 63.7047 49.3653 63.6904C48.8912 63.6561 48.7941 63.2451 48.8227 62.8741C48.8331 62.6803 48.8677 62.4885 48.9255 62.3032C49.4822 62.6167 50.1251 62.7428 50.7591 62.6629Z" fill="#171823"/>
<path d="M49.9823 63.5362C49.7978 63.6508 49.582 63.7047 49.3653 63.6904C48.8912 63.6561 48.7941 63.2451 48.8227 62.8741C49.0623 62.8384 49.3069 62.8843 49.5172 63.0045C49.7275 63.1246 49.8913 63.3119 49.9823 63.5362Z" fill="#FF9ABB"/>
<path d="M21.2154 86.3075C20.9983 82.3515 21.044 76.7628 22.2036 75.3699C23.3632 73.977 27.9159 68.9364 29.3154 68.1144C30.7149 67.2923 36.9926 63.4048 38.375 63.8843C39.4832 64.2611 38.8148 67.1096 35.8387 68.9878C34.2342 70.0496 32.6948 71.2067 31.229 72.4529C30.4692 72.9723 29.0069 76.0264 29.7781 77.1053C30.235 77.739 32.4228 78.1614 33.571 77.3451C34.7191 76.5287 34.5478 73.977 35.7531 72.5214C36.9583 71.0657 39.5346 70.7117 39.8145 71.3796C40.0944 72.0475 39.3175 72.5214 38.4721 75.1016C37.9009 76.7628 38.5749 80.3706 37.1811 83.3162C36.5024 85.03 35.9301 86.7839 35.4674 88.5681L21.2154 86.3075Z" fill="#AD6359"/>
<path d="M36.8955 71.1971C37.3446 71.036 37.7401 70.7534 38.0379 70.3808C38.1518 70.2117 38.2153 70.0137 38.2207 69.8099C38.2213 69.7012 38.2039 69.5932 38.1693 69.4902C38.142 69.3773 38.0776 69.2769 37.9865 69.2048C37.9865 69.2048 37.9865 69.1534 37.9865 69.1763C38.0333 69.223 38.0829 69.2668 38.135 69.3076C38.1741 69.3473 38.2086 69.3914 38.2378 69.4389C38.2934 69.5322 38.3321 69.6346 38.3521 69.7414C38.388 69.9792 38.3438 70.2222 38.2264 70.4321C38.0782 70.6598 37.8794 70.8503 37.6457 70.9889C37.4119 71.1275 37.1493 71.2105 36.8783 71.2313C36.8783 71.2313 36.8726 71.2028 36.8955 71.1971Z" fill="#171823"/>
<path d="M22.2036 75.37C23.049 73.2065 25.511 69.1306 28.3843 67.3324C30.3264 66.1164 38.2379 68.2229 38.3007 69.6158C38.3636 71.0087 37.124 71.2827 35.2561 71.4254C34.5706 71.4711 30.8063 70.8945 30.3493 71.7508C29.6924 72.9838 29.3039 76.82 29.3039 76.82L22.2036 75.37Z" fill="#AD6359"/>
<path d="M38.0151 69.142C36.8327 67.8405 34.7192 67.4295 32.6456 67.1897C32.6113 67.1897 32.5999 67.2354 32.6456 67.2411C33.1769 67.3039 36.6442 68.143 38.0094 69.1706C38.0151 69.182 38.0266 69.142 38.0151 69.142Z" fill="#171823"/>
<path d="M22.2036 75.3699C23.049 73.2064 25.511 69.1305 28.3843 67.3323C30.3264 66.1164 36.9241 69.5015 36.9526 70.923C36.9812 72.3444 35.239 72.8011 33.1654 72.5042C32.4914 72.4072 30.0751 71.3226 29.6181 72.1788C28.9612 73.4119 27.3732 76.4545 27.3732 76.4545L22.2036 75.3699Z" fill="#AD6359"/>
<path d="M28.2985 74.5879C28.4356 74.2453 28.4813 74.1255 28.6241 73.783C28.7669 73.4404 28.9154 73.1093 29.0868 72.784C29.2093 72.4857 29.3833 72.2114 29.6009 71.9733C29.8337 71.7717 30.1271 71.6532 30.4348 71.6365C31.1353 71.6457 31.826 71.8013 32.4627 72.0932C33.1767 72.3387 34.6333 72.6641 35.633 72.3672C35.9127 72.2994 36.1741 72.1707 36.3984 71.9905C36.5728 71.8683 36.7125 71.7031 36.804 71.5109C37.101 70.6775 36.3813 69.924 35.6958 69.4273C34.3636 68.5447 32.8834 67.9085 31.326 67.5492L30.1835 67.2695C29.7604 67.1393 29.3142 67.1023 28.8754 67.161C28.1614 67.2923 27.1617 68.2399 26.819 68.5311C26.819 68.5311 26.7676 68.5311 26.819 68.4911C27.2017 68.1315 28.11 67.0355 29.2695 66.8699C29.7006 66.8485 30.1321 66.9046 30.5434 67.0354C30.9718 67.1325 31.4059 67.241 31.8343 67.3608C32.6674 67.5822 33.4812 67.8704 34.2678 68.2228C35.0501 68.5372 35.7683 68.9918 36.387 69.5643C36.6489 69.8213 36.836 70.1444 36.9286 70.4993C37.0211 70.8542 37.0156 71.2275 36.9125 71.5795C36.8005 71.8089 36.6406 72.0117 36.4435 72.1742C36.2464 72.3367 36.0168 72.455 35.7701 72.5214C35.478 72.6167 35.1745 72.6724 34.8675 72.6869C34.1709 72.6721 33.4762 72.6092 32.7883 72.4985C32.12 72.3729 31.4802 72.059 30.8004 71.9905C30.6394 71.968 30.4755 71.9781 30.3185 72.0203C30.1614 72.0625 30.0145 72.1358 29.8865 72.2359C29.6582 72.4604 29.4656 72.7183 29.3152 73.0009C28.9696 73.5051 28.6713 74.0402 28.4241 74.5993C28.3442 74.7534 28.2413 74.7306 28.2985 74.5879Z" fill="#171823"/>
<path d="M21.6208 77.2254C21.8893 76.2207 21.9122 72.3046 22.4149 71.0031C22.9175 69.7015 25.4595 65.0605 27.0475 64.9292C29.0411 64.7636 27.6987 68.6797 26.9561 70.3237C26.2135 71.9678 26.8704 74.3996 26.8704 74.3996L21.6208 77.2254Z" fill="#AD6359"/>
<path d="M27.9103 67.6464C27.6418 68.1773 27.419 68.7482 27.1962 69.3019C26.9655 69.8214 26.7745 70.3576 26.625 70.906C26.5081 71.4576 26.4849 72.025 26.5565 72.5843C26.5565 72.864 26.625 73.1552 26.6764 73.4063C26.7278 73.6575 26.8192 73.9772 26.8706 74.2969C26.8706 74.3311 26.9278 74.3254 26.9221 74.2969C26.8508 73.748 26.8165 73.1949 26.8192 72.6414C26.8069 72.0657 26.8645 71.4907 26.9906 70.9288C27.2476 69.8157 27.7389 68.7767 28.0017 67.6693C27.996 67.6236 27.9331 67.6065 27.9103 67.6464Z" fill="#171823"/>
<path d="M26.9734 74.8049C27.0865 75.7578 27.4382 76.6669 27.9959 77.448C28.2572 77.8491 28.5474 78.2307 28.8641 78.5897C29.1887 78.941 29.534 79.2727 29.8981 79.583C30.5995 80.169 31.225 80.8402 31.7603 81.581C32.282 82.3494 32.706 83.1797 33.0227 84.0528C32.905 83.1022 32.6044 82.1833 32.1373 81.3469C31.6446 80.5183 31.0171 79.7774 30.2808 79.1548C29.5808 78.5593 28.9417 77.8958 28.3729 77.174C27.7791 76.4667 27.3062 75.6662 26.9734 74.8049Z" fill="#171823"/>
<path d="M28.8585 107.8C32.5486 106.504 33.7196 99.6485 35.7532 87.6034C36.1073 85.4856 23.706 75.4956 22.7292 77.5678C21.4954 80.1823 19.5189 93.723 19.7474 97.2566C20.193 104.215 24.5686 109.313 28.8585 107.8Z" fill="#AD6359"/>
<path d="M35.7532 87.6035C35.3133 92.2503 33.8853 103.479 30.4922 106.567C31.6346 105.363 32.1087 103.713 32.6171 102.155C33.1255 100.596 33.5025 98.9692 33.8453 97.3537C34.5022 94.5451 35.2105 90.5035 35.7532 87.6035Z" fill="#171823"/>
<path d="M41.1854 74.4909L46.4464 90.7831C46.5134 90.8698 46.5541 90.974 46.5636 91.0832C46.573 91.1923 46.5508 91.3019 46.4996 91.3989C46.4484 91.4958 46.3704 91.5759 46.2748 91.6297C46.1793 91.6835 46.0703 91.7087 45.9608 91.7022L37.3924 92.2731C37.1303 92.2689 36.8745 92.1913 36.6543 92.049C36.4342 91.9067 36.2584 91.7054 36.1472 91.4681L30.8862 75.176C30.6748 74.6964 30.8862 74.2911 31.3717 74.2569L39.9401 73.686C40.2021 73.6908 40.4576 73.7687 40.6776 73.9109C40.8977 74.0532 41.0736 74.2541 41.1854 74.4909Z" fill="#37474F"/>
<path d="M40.1686 74.548L45.4296 90.8345C45.4966 90.9212 45.5373 91.0253 45.5468 91.1345C45.5562 91.2437 45.534 91.3533 45.4828 91.4502C45.4316 91.5471 45.3536 91.6273 45.2581 91.6811C45.1625 91.7349 45.0535 91.76 44.944 91.7536L36.3756 92.3244C36.1136 92.3196 35.8582 92.2417 35.6381 92.0995C35.4181 91.9573 35.2422 91.7564 35.1304 91.5195L29.8808 75.2216C29.8137 75.1349 29.773 75.0308 29.7636 74.9216C29.7542 74.8124 29.7764 74.7028 29.8276 74.6059C29.8788 74.509 29.9568 74.4288 30.0523 74.3751C30.1479 74.3213 30.2569 74.2961 30.3664 74.3025L38.9347 73.7317C39.196 73.7396 39.4499 73.8202 39.6679 73.9644C39.8859 74.1086 40.0592 74.3107 40.1686 74.548Z" fill="#455A64"/>
<path d="M37.8723 75.4555C37.8852 75.5981 37.9401 75.7337 38.03 75.8452C38.1198 75.9566 38.2407 76.039 38.3774 76.0819C38.514 76.1248 38.6604 76.1263 38.7979 76.0863C38.9354 76.0462 39.058 75.9663 39.1502 75.8568C39.2423 75.7472 39.3 75.6128 39.3158 75.4705C39.3317 75.3282 39.305 75.1844 39.2392 75.0573C39.1734 74.9301 39.0715 74.8253 38.9461 74.7559C38.8208 74.6866 38.6777 74.6559 38.5349 74.6678C38.4395 74.6757 38.3467 74.7023 38.2616 74.7463C38.1766 74.7902 38.1011 74.8505 38.0395 74.9238C37.9779 74.997 37.9314 75.0817 37.9027 75.173C37.874 75.2642 37.8637 75.3603 37.8723 75.4555Z" fill="#171823"/>
<path d="M72.4372 106.681C69.9581 107.989 64.3144 107.64 53.3583 100.191C51.6446 99.0491 56.9399 84.2811 58.7906 85.4913C61.1212 87.0155 69.8381 93.4376 70.4151 93.9857C75.2933 98.621 75.0534 105.306 72.4372 106.681Z" fill="#AD6359"/>
<path d="M63.1034 89.7554C63.1034 89.7554 59.6761 84.9317 57.0713 82.9566C54.3255 80.972 51.1378 79.6849 47.7832 79.2061C44.1616 78.6695 35.0448 79.8854 34.9363 82.5684C34.8392 85.0002 44.0759 83.2934 44.0759 83.2934C44.0759 83.2934 34.3651 83.476 34.7707 86.4274C35.1762 89.3787 45.8181 86.7813 45.8181 86.7813C45.8181 86.7813 35.8331 87.1923 36.7471 90.1665C37.4383 92.4156 47.2005 90.606 47.2005 90.606C47.2005 90.606 38.6321 91.0227 39.2034 93.3632C39.8831 95.9492 48.9999 94.8418 48.9999 94.8418C51.5532 100.55 55.2205 102.132 57.8824 103.016C58.5736 103.233 63.1034 89.7554 63.1034 89.7554Z" fill="#AD6359"/>
<path d="M47.4574 83.008C46.315 83.008 45.1725 82.9623 44.0301 83.048C42.8876 83.1336 41.7452 83.2535 40.6027 83.4362C39.1223 83.6497 37.6714 84.0328 36.2786 84.5779C38.8205 83.7844 42.8991 83.4362 44.0415 83.3448C45.184 83.2535 46.3264 83.1279 47.4689 83.0423C47.4917 83.0537 47.486 83.008 47.4574 83.008Z" fill="#171823"/>
<path d="M47.8289 87.1238C46.3665 87.1637 44.9156 87.1238 43.459 87.2494C42.0024 87.375 40.6371 87.5748 39.1919 87.7803C39.0834 87.7803 39.1291 87.8488 39.2376 87.8373C40.6886 87.6946 42.0366 87.6718 43.4876 87.5405C44.9385 87.4092 46.3837 87.2322 47.8346 87.158C47.8574 87.158 47.8517 87.1238 47.8289 87.1238Z" fill="#171823"/>
<path d="M48.7826 90.5947C46.5404 90.6002 44.3048 90.8355 42.1107 91.2969C42.0021 91.2969 42.0707 91.3825 42.1792 91.3711C44.3956 91.0914 46.1264 90.863 48.7826 90.6746C48.8226 90.6689 48.8283 90.5947 48.7826 90.5947Z" fill="#171823"/>
<path d="M60.9897 87.0154C63.9997 88.8413 66.8439 90.9272 69.4896 93.2491C66.6906 91.2112 63.6916 89.1789 60.9897 87.0154Z" fill="#171823"/>
<path d="M96.413 127.016H137.618C138.515 127.024 139.373 127.385 140.006 128.02C140.639 128.656 140.996 129.515 141 130.412V155.881C141 158.392 140.505 160.879 139.543 163.199C138.582 165.519 137.172 167.627 135.396 169.403C133.619 171.178 131.509 172.586 129.188 173.547C126.867 174.507 124.379 175.001 121.867 175H112.125C107.053 175 102.188 172.986 98.6017 169.4C95.015 165.815 93 160.952 93 155.881V130.412C93 129.507 93.3596 128.639 93.9997 127.999C94.6397 127.359 95.5078 127 96.413 127V127.016Z" fill="#6C48DD"/>
<path d="M122 144.492C122.002 145.58 121.68 146.645 121.077 147.55C120.473 148.456 119.615 149.162 118.61 149.579C117.605 149.997 116.499 150.107 115.432 149.895C114.364 149.684 113.384 149.161 112.614 148.392C111.844 147.623 111.319 146.643 111.106 145.576C110.893 144.509 111.002 143.402 111.418 142.397C111.834 141.392 112.539 140.532 113.444 139.927C114.348 139.323 115.412 139 116.5 139C117.957 139 119.355 139.578 120.386 140.608C121.418 141.638 121.998 143.035 122 144.492Z" fill="black"/>
<path d="M115.283 148L111 161H123L118.415 148H115.283Z" fill="black"/>
</g>
<defs>
<clipPath id="clip0_2001_1059">
<rect width="234.219" height="250" fill="white"/>
</clipPath>
</defs>
</svg>
