<svg width="265" height="251" viewBox="0 0 265 251" fill="none" xmlns="http://www.w3.org/2000/svg">
<path d="M159.749 66.1059H186.151L206.03 51.5491H218.654" stroke="#DBDBDB" stroke-width="0.75" stroke-miterlimit="10"/>
<path d="M219.922 52.8449C219.665 52.8449 219.415 52.7689 219.202 52.6265C218.988 52.4841 218.822 52.2817 218.724 52.0449C218.626 51.8081 218.6 51.5476 218.65 51.2962C218.7 51.0448 218.824 50.8139 219.005 50.6327C219.186 50.4515 219.417 50.3281 219.669 50.2781C219.92 50.2281 220.181 50.2537 220.418 50.3518C220.655 50.4499 220.858 50.616 221 50.8291C221.143 51.0422 221.219 51.2927 221.219 51.549C221.219 51.8927 221.082 52.2223 220.839 52.4653C220.596 52.7083 220.266 52.8449 219.922 52.8449Z" stroke="#DBDBDB" stroke-width="0.75" stroke-miterlimit="10"/>
<path d="M159.749 61.8529H183.746L203.631 47.2961H208.435" stroke="#DBDBDB" stroke-width="0.75" stroke-miterlimit="10"/>
<path d="M209.703 48.5922C209.446 48.591 209.195 48.5138 208.983 48.3702C208.77 48.2266 208.605 48.0231 208.508 47.7856C208.411 47.548 208.387 47.2871 208.438 47.0358C208.49 46.7845 208.615 46.5542 208.798 46.374C208.98 46.1938 209.213 46.0719 209.465 46.0236C209.717 45.9754 209.978 46.003 210.214 46.103C210.45 46.203 210.652 46.3708 210.793 46.5853C210.933 46.7998 211.007 47.0512 211.005 47.3077C211.002 47.6504 210.863 47.978 210.619 48.2187C210.375 48.4594 210.046 48.5937 209.703 48.5922Z" stroke="#DBDBDB" stroke-width="0.75" stroke-miterlimit="10"/>
<path d="M159.749 70.4045H208.355" stroke="#DBDBDB" stroke-width="0.75" stroke-miterlimit="10"/>
<path d="M209.646 71.7003C209.389 71.7003 209.138 71.6243 208.925 71.4819C208.712 71.3396 208.546 71.1372 208.448 70.9004C208.349 70.6636 208.324 70.4031 208.374 70.1517C208.424 69.9003 208.547 69.6694 208.729 69.4882C208.91 69.307 209.141 69.1835 209.393 69.1335C209.644 69.0835 209.905 69.1092 210.142 69.2073C210.379 69.3054 210.581 69.4715 210.724 69.6846C210.866 69.8977 210.942 70.1482 210.942 70.4045C210.942 70.7482 210.806 71.0778 210.562 71.3208C210.319 71.5638 209.989 71.7003 209.646 71.7003Z" stroke="#DBDBDB" stroke-width="0.75" stroke-miterlimit="10"/>
<path d="M159.749 74.7373H180.107L198.758 84.6245H232.203" stroke="#DBDBDB" stroke-width="0.75" stroke-miterlimit="10"/>
<path d="M233.494 85.9147C233.237 85.9147 232.987 85.8385 232.773 85.6959C232.56 85.5532 232.394 85.3505 232.296 85.1134C232.198 84.8763 232.172 84.6155 232.223 84.3639C232.273 84.1124 232.397 83.8815 232.579 83.7005C232.761 83.5195 232.993 83.3966 233.245 83.3472C233.497 83.2979 233.758 83.3243 233.994 83.4233C234.231 83.5222 234.433 83.6892 234.575 83.9031C234.717 84.1169 234.792 84.368 234.791 84.6245C234.791 84.7945 234.757 84.9627 234.692 85.1196C234.627 85.2765 234.531 85.419 234.411 85.5388C234.29 85.6587 234.147 85.7536 233.99 85.8181C233.833 85.8826 233.664 85.9154 233.494 85.9147Z" stroke="#DBDBDB" stroke-width="0.75" stroke-miterlimit="10"/>
<path d="M159.749 79.053H178.114L198.735 90.7041H215.895" stroke="#DBDBDB" stroke-width="0.75" stroke-miterlimit="10"/>
<path d="M217.186 91.9999C216.929 91.9999 216.678 91.9239 216.465 91.7815C216.252 91.6391 216.086 91.4367 215.988 91.1999C215.889 90.9632 215.864 90.7026 215.914 90.4512C215.964 90.1999 216.087 89.969 216.269 89.7877C216.45 89.6065 216.681 89.4831 216.933 89.4331C217.184 89.3831 217.445 89.4088 217.682 89.5068C217.919 89.6049 218.121 89.771 218.264 89.9841C218.406 90.1972 218.482 90.4478 218.482 90.704C218.482 91.0477 218.346 91.3773 218.102 91.6203C217.859 91.8634 217.529 91.9999 217.186 91.9999Z" stroke="#DBDBDB" stroke-width="0.75" stroke-miterlimit="10"/>
<path d="M76.0419 171.691H50.1254L30.241 157.129H12.7559" stroke="#DBDBDB" stroke-width="0.75" stroke-miterlimit="10"/>
<path d="M11.482 158.424C11.739 158.426 11.9904 158.35 12.2046 158.208C12.4187 158.066 12.5858 157.864 12.6846 157.627C12.7835 157.39 12.8096 157.129 12.7598 156.877C12.7099 156.625 12.5863 156.394 12.4046 156.212C12.2229 156.031 11.9914 155.907 11.7393 155.857C11.4872 155.808 11.226 155.834 10.9889 155.932C10.7517 156.031 10.5492 156.198 10.4072 156.412C10.2652 156.626 10.1899 156.878 10.1911 157.134C10.1926 157.476 10.329 157.803 10.5708 158.045C10.8126 158.287 11.1401 158.423 11.482 158.424Z" stroke="#DBDBDB" stroke-width="0.75" stroke-miterlimit="10"/>
<path d="M76.0418 167.375H52.5301L32.6458 152.819H22.975" stroke="#DBDBDB" stroke-width="0.75" stroke-miterlimit="10"/>
<path d="M21.7012 154.115C21.9577 154.115 22.2084 154.039 22.4216 153.896C22.6349 153.754 22.8011 153.551 22.8992 153.315C22.9973 153.078 23.023 152.817 22.973 152.566C22.923 152.315 22.7995 152.084 22.6181 151.902C22.4368 151.721 22.2057 151.598 21.9542 151.548C21.7027 151.498 21.4419 151.524 21.205 151.622C20.9681 151.72 20.7656 151.886 20.6231 152.099C20.4806 152.312 20.4045 152.562 20.4045 152.819C20.4045 153.162 20.5412 153.492 20.7843 153.735C21.0275 153.978 21.3573 154.115 21.7012 154.115Z" stroke="#DBDBDB" stroke-width="0.75" stroke-miterlimit="10"/>
<path d="M76.0418 176.035H3.59338" stroke="#DBDBDB" stroke-width="0.75" stroke-miterlimit="10"/>
<path d="M2.29668 177.331C2.55314 177.331 2.80384 177.255 3.01708 177.113C3.23031 176.97 3.39651 176.768 3.49466 176.531C3.5928 176.294 3.61848 176.034 3.56845 175.783C3.51841 175.531 3.39492 175.3 3.21357 175.119C3.03223 174.938 2.80118 174.814 2.54965 174.764C2.29812 174.714 2.0374 174.74 1.80046 174.838C1.56352 174.936 1.36101 175.102 1.21853 175.315C1.07605 175.529 1 175.779 1 176.035C1 176.379 1.13661 176.709 1.37979 176.952C1.62296 177.195 1.95278 177.331 2.29668 177.331Z" stroke="#DBDBDB" stroke-width="0.75" stroke-miterlimit="10"/>
<path d="M76.0418 180.323H56.1688L37.5126 190.204H28.4016" stroke="#DBDBDB" stroke-width="0.75" stroke-miterlimit="10"/>
<path d="M27.1049 191.5C27.3614 191.5 27.6121 191.424 27.8253 191.281C28.0386 191.139 28.2048 190.937 28.3029 190.7C28.401 190.463 28.4267 190.203 28.3767 189.951C28.3267 189.7 28.2032 189.469 28.0218 189.288C27.8405 189.107 27.6094 188.983 27.3579 188.933C27.1064 188.883 26.8456 188.909 26.6087 189.007C26.3718 189.105 26.1692 189.271 26.0268 189.484C25.8843 189.697 25.8082 189.948 25.8082 190.204C25.8075 190.374 25.8405 190.543 25.9054 190.701C25.9703 190.858 26.0658 191.002 26.1863 191.122C26.3069 191.242 26.4501 191.338 26.6078 191.403C26.7655 191.468 26.9344 191.501 27.1049 191.5Z" stroke="#DBDBDB" stroke-width="0.75" stroke-miterlimit="10"/>
<path d="M76.0417 184.632H58.1624L37.5412 196.289H15.5148" stroke="#DBDBDB" stroke-width="0.75" stroke-miterlimit="10"/>
<path d="M14.2182 197.579C14.4754 197.579 14.7267 197.503 14.9403 197.36C15.1539 197.217 15.3201 197.013 15.4177 196.776C15.5153 196.538 15.54 196.276 15.4885 196.024C15.4371 195.773 15.3119 195.542 15.1288 195.361C14.9458 195.181 14.7131 195.059 14.4605 195.011C14.2078 194.963 13.9466 194.991 13.71 195.091C13.4734 195.192 13.272 195.361 13.1316 195.576C12.9912 195.792 12.9181 196.044 12.9215 196.301C12.9245 196.642 13.0626 196.968 13.3057 197.208C13.5487 197.447 13.8768 197.581 14.2182 197.579Z" stroke="#DBDBDB" stroke-width="0.75" stroke-miterlimit="10"/>
<path d="M121.786 43.5114V22.2413L130.371 10.5274V7.14795" stroke="#DBDBDB" stroke-width="0.75" stroke-miterlimit="10"/>
<path d="M129.074 5.80662C129.078 6.06215 129.157 6.31099 129.301 6.52182C129.446 6.73266 129.649 6.89608 129.887 6.99154C130.124 7.08699 130.384 7.11023 130.634 7.05831C130.885 7.00639 131.114 6.88164 131.294 6.69975C131.473 6.51786 131.595 6.28696 131.644 6.03607C131.693 5.78518 131.666 5.52551 131.567 5.28972C131.469 5.05393 131.302 4.85255 131.09 4.71091C130.877 4.56926 130.627 4.49367 130.371 4.49365C130.199 4.49364 130.029 4.52771 129.871 4.5939C129.712 4.66009 129.569 4.75708 129.448 4.87923C129.327 5.00138 129.232 5.14626 129.168 5.30546C129.104 5.46466 129.072 5.63501 129.074 5.80662Z" stroke="#DBDBDB" stroke-width="0.75" stroke-miterlimit="10"/>
<path d="M126.104 43.5116V24.6392L136.472 10.4991V3.80298" stroke="#DBDBDB" stroke-width="0.75" stroke-miterlimit="10"/>
<path d="M136.472 3.80286C137.188 3.80286 137.768 3.22269 137.768 2.50702C137.768 1.79135 137.188 1.21118 136.472 1.21118C135.755 1.21118 135.175 1.79135 135.175 2.50702C135.175 3.22269 135.755 3.80286 136.472 3.80286Z" stroke="#DBDBDB" stroke-width="0.75" stroke-miterlimit="10"/>
<path d="M117.467 43.5114V12.2686" stroke="#DBDBDB" stroke-width="0.75" stroke-miterlimit="10"/>
<path d="M116.182 10.9785C116.182 11.2347 116.258 11.4853 116.4 11.6984C116.543 11.9115 116.745 12.0776 116.982 12.1757C117.219 12.2737 117.48 12.2994 117.731 12.2494C117.983 12.1994 118.214 12.076 118.395 11.8948C118.577 11.7135 118.7 11.4826 118.75 11.2313C118.8 10.9799 118.775 10.7193 118.676 10.4826C118.578 10.2458 118.412 10.0434 118.199 9.90101C117.986 9.75862 117.735 9.68262 117.478 9.68262C117.135 9.68262 116.805 9.81914 116.562 10.0622C116.318 10.3052 116.182 10.6348 116.182 10.9785Z" stroke="#DBDBDB" stroke-width="0.75" stroke-miterlimit="10"/>
<path d="M113.149 43.5114V28.281L106.528 15.8021V4.07104" stroke="#DBDBDB" stroke-width="0.75" stroke-miterlimit="10"/>
<path d="M106.528 3.9513C107.244 3.9513 107.825 3.37113 107.825 2.65546C107.825 1.93979 107.244 1.35962 106.528 1.35962C105.812 1.35962 105.231 1.93979 105.231 2.65546C105.231 3.37113 105.812 3.9513 106.528 3.9513Z" stroke="#DBDBDB" stroke-width="0.75" stroke-miterlimit="10"/>
<path d="M108.83 43.5114V30.2733L99.325 13.4673V10.1792" stroke="#DBDBDB" stroke-width="0.75" stroke-miterlimit="10"/>
<path d="M98.0282 8.80357C98.0271 9.06035 98.1023 9.31167 98.2444 9.52564C98.3864 9.73961 98.5889 9.90659 98.826 10.0054C99.0632 10.1042 99.3244 10.1303 99.5765 10.0805C99.8285 10.0307 100.06 9.90713 100.242 9.72556C100.423 9.54399 100.547 9.31257 100.597 9.06068C100.647 8.80878 100.621 8.54776 100.522 8.31074C100.423 8.07373 100.256 7.8714 100.042 7.72945C99.8276 7.5875 99.5761 7.51231 99.3192 7.51344C98.9773 7.51494 98.6498 7.65135 98.408 7.89297C98.1662 8.13459 98.0297 8.46187 98.0282 8.80357Z" stroke="#DBDBDB" stroke-width="0.75" stroke-miterlimit="10"/>
<path d="M93.9611 26.9854H12.9329V39.2587H93.9611V26.9854Z" fill="#0C0B14"/>
<rect x="57" y="43" width="114" height="208" rx="9" fill="#0C0B14"/>
<path d="M162.311 43H65.7741C64.4788 43.0106 63.1985 43.2635 62.0062 43.7442C60.8139 44.2248 59.7331 44.9238 58.8254 45.8013C57.9178 46.6787 57.2011 47.7174 56.7164 48.8579C56.2317 49.9984 55.9884 51.2185 56.0004 52.4483V241.198C55.9776 243.681 56.9943 246.071 58.8271 247.843C60.6599 249.615 63.1587 250.623 65.7741 250.646H162.311C164.928 250.625 167.429 249.617 169.264 247.845C171.099 246.074 172.117 243.683 172.096 241.198V52.4483C172.107 51.2178 171.863 49.9972 171.378 48.8562C170.892 47.7153 170.174 46.6765 169.265 45.799C168.357 44.9216 167.275 44.2228 166.082 43.7425C164.888 43.2622 163.607 43.0099 162.311 43ZM165.984 235.351C165.984 240.319 162.065 244.338 157.233 244.338H70.8466C65.9969 244.338 62.084 240.319 62.084 235.351V59.6186C62.084 49.4978 65.9969 49.0042 70.8466 49.0042H88.149C89.1543 49.0042 89.9769 50.089 89.9769 51.4341V52.0253C89.9769 55.1765 91.7934 55.1874 94.0269 55.1874H134.013C136.297 55.1874 138.063 55.1874 138.063 52.0253V51.4178C138.063 50.0727 138.874 48.9879 139.902 48.9879H157.204C162.037 48.9879 165.955 50.333 165.955 59.6024L165.984 235.351Z" fill="#171823"/>
<path d="M119.492 51.2226H108.576C108.397 51.2226 108.226 51.1552 108.099 51.0352C107.973 50.9152 107.902 50.7524 107.902 50.5826C107.902 50.4986 107.919 50.4154 107.953 50.3377C107.987 50.2601 108.037 50.1895 108.099 50.1301C108.162 50.0707 108.236 50.0235 108.318 49.9913C108.4 49.9592 108.487 49.9426 108.576 49.9426H119.492C119.581 49.9426 119.668 49.9592 119.75 49.9913C119.832 50.0235 119.906 50.0707 119.969 50.1301C120.031 50.1895 120.081 50.2601 120.115 50.3377C120.149 50.4154 120.166 50.4986 120.166 50.5826C120.166 50.7524 120.095 50.9152 119.969 51.0352C119.842 51.1552 119.671 51.2226 119.492 51.2226Z" fill="white"/>
<path d="M85.1614 52.931L84.9958 53.0883C84.9615 53.1209 84.933 53.1534 84.8987 53.1805C84.4706 52.7765 83.8915 52.5496 83.2878 52.5496C82.6842 52.5496 82.1051 52.7765 81.677 53.1805C81.6427 53.1805 81.6141 53.1209 81.5856 53.0938L81.4199 52.9365L81.6313 52.7575C81.7813 52.6404 81.9463 52.542 82.1225 52.4646C82.3271 52.3677 82.5441 52.2965 82.768 52.2531L83.0936 52.2151H83.3792H83.5963C83.7915 52.2394 83.9832 52.2849 84.1675 52.3507C84.3078 52.3992 84.4435 52.4591 84.5731 52.5297C84.7086 52.6034 84.8367 52.6887 84.9558 52.7846L85.1329 52.9365L85.1614 52.931Z" fill="#A6A6A6"/>
<path d="M82.2027 53.6795L81.9399 53.43C82.2301 53.1538 82.607 52.9748 83.0138 52.9202C83.3066 52.8769 83.606 52.9006 83.8871 52.9893C84.1683 53.078 84.4231 53.2291 84.6304 53.43L84.3676 53.6795C84.2269 53.5436 84.0588 53.4361 83.8733 53.3634C83.6878 53.2907 83.4887 53.2544 83.288 53.2565C83.0866 53.2549 82.8868 53.2915 82.7004 53.3641C82.5141 53.4367 82.3449 53.544 82.2027 53.6795Z" fill="#A6A6A6"/>
<path d="M84.1045 53.9291L83.8417 54.1786C83.7673 54.1071 83.6782 54.051 83.5799 54.0136C83.4816 53.9763 83.3763 53.9586 83.2705 53.9616C83.1642 53.9583 83.0583 53.9764 82.9598 54.0147C82.8614 54.0531 82.7726 54.1107 82.6993 54.184L82.4365 53.9345C82.543 53.8258 82.6718 53.7389 82.8151 53.6794C82.9583 53.6199 83.1129 53.5889 83.2693 53.5884C83.4256 53.5879 83.5804 53.6179 83.7241 53.6765C83.8678 53.7351 83.9973 53.821 84.1045 53.9291Z" fill="#A6A6A6"/>
<path d="M83.522 54.4063C83.5227 54.4359 83.5172 54.4654 83.5058 54.493C83.4944 54.5207 83.4772 54.5458 83.4554 54.567C83.4336 54.5883 83.4075 54.6051 83.3787 54.6166C83.3499 54.6282 83.319 54.6341 83.2878 54.6341C83.2241 54.6341 83.1631 54.6101 83.1181 54.5674C83.0731 54.5246 83.0479 54.4667 83.0479 54.4063C83.0478 54.3766 83.0541 54.3472 83.0662 54.3199C83.0783 54.2926 83.0961 54.2678 83.1185 54.2471C83.1408 54.2264 83.1673 54.2101 83.1964 54.1992C83.2255 54.1884 83.2565 54.1832 83.2878 54.1839C83.3499 54.1839 83.4095 54.2073 83.4534 54.249C83.4973 54.2907 83.522 54.3473 83.522 54.4063Z" fill="#A6A6A6"/>
<path d="M68.8531 53.4137C68.8519 53.2836 68.8915 53.1562 68.9668 53.0476C69.042 52.9389 69.1496 52.854 69.2758 52.8035C69.4019 52.753 69.5411 52.7392 69.6755 52.7639C69.81 52.7886 69.9337 52.8507 70.0309 52.9423C70.1282 53.0338 70.1946 53.1507 70.2217 53.2782C70.2488 53.4056 70.2355 53.5379 70.1833 53.6581C70.1312 53.7784 70.0426 53.8812 69.9288 53.9535C69.815 54.0259 69.6812 54.0645 69.5442 54.0645C69.3619 54.0645 69.187 53.9961 69.0575 53.8742C68.928 53.7523 68.8546 53.5868 68.8531 53.4137Z" fill="#A6A6A6"/>
<path d="M71.0235 53.4137C71.0223 53.2836 71.0619 53.1562 71.1372 53.0476C71.2124 52.9389 71.32 52.854 71.4462 52.8035C71.5724 52.753 71.7115 52.7392 71.8459 52.7639C71.9804 52.7886 72.1041 52.8507 72.2013 52.9423C72.2986 53.0338 72.365 53.1507 72.3921 53.2782C72.4192 53.4056 72.4059 53.5379 72.3537 53.6581C72.3016 53.7784 72.213 53.8812 72.0992 53.9535C71.9854 54.0259 71.8516 54.0645 71.7146 54.0645C71.5323 54.0645 71.3574 53.9961 71.2279 53.8742C71.0985 53.7523 71.025 53.5868 71.0235 53.4137Z" fill="#A6A6A6"/>
<path d="M73.1944 53.4136C73.1932 53.2834 73.233 53.1558 73.3085 53.047C73.384 52.9382 73.4919 52.8533 73.6184 52.8029C73.7449 52.7526 73.8844 52.7392 74.019 52.7643C74.1536 52.7895 74.2772 52.8521 74.3743 52.9442C74.4713 53.0363 74.5372 53.1537 74.5637 53.2815C74.5902 53.4093 74.576 53.5417 74.523 53.6619C74.47 53.782 74.3805 53.8845 74.266 53.9562C74.1514 54.0279 74.017 54.0656 73.8798 54.0645C73.6985 54.0631 73.525 53.9941 73.3968 53.8723C73.2685 53.7505 73.1959 53.5858 73.1944 53.4136Z" fill="#A6A6A6"/>
<path d="M75.3648 53.4136C75.3636 53.2834 75.4034 53.1558 75.4789 53.047C75.5544 52.9382 75.6623 52.8533 75.7888 52.8029C75.9153 52.7526 76.0548 52.7392 76.1894 52.7643C76.324 52.7895 76.4477 52.8521 76.5447 52.9442C76.6417 53.0363 76.7076 53.1537 76.7341 53.2815C76.7606 53.4093 76.7464 53.5417 76.6934 53.6619C76.6404 53.782 76.5509 53.8845 76.4364 53.9562C76.3218 54.0279 76.1874 54.0656 76.0502 54.0645C75.8689 54.0631 75.6954 53.9941 75.5672 53.8723C75.439 53.7505 75.3663 53.5858 75.3648 53.4136Z" fill="#A6A6A6"/>
<path d="M77.5298 53.4137C77.5287 53.2836 77.5683 53.1562 77.6435 53.0476C77.7188 52.9389 77.8263 52.854 77.9525 52.8035C78.0787 52.753 78.2179 52.7392 78.3523 52.7639C78.4868 52.7886 78.6104 52.8507 78.7077 52.9423C78.8049 53.0338 78.8713 53.1507 78.8984 53.2782C78.9256 53.4056 78.9122 53.5379 78.8601 53.6581C78.808 53.7784 78.7194 53.8812 78.6056 53.9535C78.4918 54.0259 78.3579 54.0645 78.221 54.0645C78.0387 54.0645 77.8637 53.9961 77.7343 53.8742C77.6048 53.7523 77.5313 53.5868 77.5298 53.4137Z" fill="#A6A6A6"/>
<path d="M158.05 52.5081H152.731V54.7047H158.05V52.5081Z" fill="#A6A6A6" stroke="white" stroke-width="0.5" stroke-miterlimit="10"/>
<path d="M156.668 52.79H153.052V54.4172H156.668V52.79Z" fill="#A6A6A6"/>
<path d="M158.695 52.9473H158.198V54.2653H158.695V52.9473Z" fill="#A6A6A6"/>
<path d="M135.22 117.13V104.05C135.22 99.0196 133.225 94.1944 129.673 90.6327C126.12 87.0709 121.3 85.0633 116.27 85.0501C112.77 85.0482 109.338 86.0163 106.355 87.8469C103.371 89.6774 100.954 92.2988 99.37 95.42" stroke="#FFFFFC" stroke-width="4.19" stroke-miterlimit="10"/>
<path d="M89.2601 111.63H142.26C143.414 111.64 144.517 112.105 145.331 112.923C146.146 113.74 146.605 114.846 146.61 116V148.77C146.61 152.001 145.973 155.201 144.737 158.186C143.5 161.171 141.687 163.884 139.401 166.168C137.116 168.453 134.403 170.264 131.417 171.5C128.431 172.736 125.231 173.371 122 173.37H109.47C102.946 173.37 96.6887 170.778 92.0753 166.165C87.4619 161.551 84.8701 155.294 84.8701 148.77V116C84.8701 114.836 85.3326 113.719 86.1559 112.896C86.9792 112.072 88.0958 111.61 89.2601 111.61V111.63Z" fill="#6C48DD"/>
<path d="M122.76 133.96C122.762 135.386 122.341 136.781 121.55 137.968C120.759 139.155 119.633 140.081 118.316 140.628C116.999 141.176 115.549 141.32 114.149 141.043C112.75 140.766 111.464 140.08 110.455 139.072C109.446 138.064 108.758 136.779 108.479 135.38C108.2 133.981 108.342 132.531 108.888 131.213C109.433 129.895 110.357 128.769 111.543 127.976C112.729 127.183 114.123 126.76 115.55 126.76C117.46 126.76 119.293 127.518 120.645 128.868C121.996 130.218 122.757 132.05 122.76 133.96Z" fill="black"/>
<path d="M113.41 138.97L107.6 155.66H123.88L117.66 138.97H113.41Z" fill="black"/>
<path d="M151.27 211.21H77.08C74.4066 211.21 71.8427 210.148 69.9524 208.258C68.062 206.367 67 203.803 67 201.13C67 199.807 67.2608 198.497 67.7675 197.274C68.2742 196.052 69.0168 194.941 69.953 194.006C70.8891 193.071 72.0004 192.329 73.2233 191.824C74.4462 191.318 75.7567 191.059 77.08 191.06H151.27C152.593 191.059 153.904 191.318 155.127 191.824C156.35 192.329 157.461 193.071 158.397 194.006C159.333 194.941 160.076 196.052 160.582 197.274C161.089 198.497 161.35 199.807 161.35 201.13C161.35 203.803 160.288 206.367 158.398 208.258C156.507 210.148 153.943 211.21 151.27 211.21Z" fill="white"/>
<path d="M94.8201 197.59L92.4301 200.73V200.78L96.23 200.28V201.99L92.4301 201.54V201.59L94.8501 204.59L93.26 205.49L91.7501 201.97H91.7L90.0701 205.52L88.64 204.61L91.0301 201.54V201.49L87.3 201.97V200.26L91.0001 200.74L88.64 197.67L90.17 196.79L91.73 200.28H91.7801L93.3101 196.76L94.8201 197.59Z" fill="black"/>
<path d="M110.74 197.59L108.35 200.73V200.78L112.15 200.28V201.99L108.35 201.54V201.59L110.77 204.59L109.18 205.49L107.67 201.97L106.04 205.52L104.61 204.61L107 201.54V201.49L103.27 201.97V200.26L106.97 200.74L104.61 197.67L106.14 196.79L107.7 200.28H107.75L109.28 196.76L110.74 197.59Z" fill="black"/>
<path d="M126.66 197.59L124.27 200.73V200.78L128.07 200.28V201.99L124.27 201.54V201.59L126.69 204.59L125.1 205.49L123.59 201.97H123.54L121.91 205.52L120.48 204.61L122.87 201.54V201.49L119.14 201.97V200.26L122.84 200.74L120.48 197.67L122.01 196.79L123.57 200.28H123.62L125.15 196.76L126.66 197.59Z" fill="black"/>
<path d="M142.58 197.59L140.2 200.73V200.78L143.99 200.28V201.99L140.2 201.54V201.59L142.61 204.59L141.02 205.49L139.51 201.97H139.46L137.83 205.52L136.4 204.61L138.79 201.54V201.49L135.06 201.97V200.26L138.76 200.74L136.4 197.67L137.93 196.79L139.49 200.28H139.54L141.08 196.76L142.58 197.59Z" fill="black"/>
<g clip-path="url(#clip0_2001_1058)">
<path d="M127.044 150.914H150.059C150.512 149.602 151.39 148.5 152.539 147.801C153.687 147.103 155.033 146.853 156.339 147.095C157.646 147.337 158.829 148.056 159.682 149.126C160.535 150.195 161.002 151.547 161.002 152.943C161.002 154.339 160.535 155.69 159.682 156.76C158.829 157.829 157.646 158.548 156.339 158.79C155.033 159.032 153.687 158.782 152.539 158.084C151.39 157.386 150.512 156.284 150.059 154.972H137.537V157.396C137.537 157.696 137.424 157.984 137.223 158.197C137.021 158.409 136.748 158.53 136.463 158.531H135.838C135.545 158.53 135.265 158.406 135.058 158.188C134.852 157.969 134.735 157.673 134.736 157.365V154.972H133.154V157.54C133.154 157.831 133.044 158.111 132.848 158.317C132.653 158.523 132.387 158.639 132.11 158.639H131.393C131.117 158.638 130.852 158.521 130.657 158.315C130.463 158.109 130.353 157.83 130.353 157.54V154.972H128.777V158.906C128.769 159.089 128.715 159.266 128.621 159.42C128.283 159.404 127.955 159.296 127.669 159.106C127.445 158.945 127.256 158.736 127.115 158.493C126.974 158.249 126.883 157.977 126.849 157.694V150.95C126.913 150.93 126.978 150.918 127.044 150.914ZM157.706 154.941C158.083 154.941 158.451 154.823 158.764 154.603C159.077 154.382 159.321 154.069 159.465 153.703C159.609 153.337 159.646 152.934 159.572 152.545C159.499 152.156 159.317 151.799 159.05 151.519C158.783 151.239 158.444 151.049 158.074 150.972C157.705 150.896 157.322 150.936 156.974 151.088C156.627 151.241 156.33 151.498 156.121 151.828C155.913 152.159 155.802 152.546 155.803 152.943C155.803 153.206 155.852 153.466 155.948 153.709C156.044 153.951 156.184 154.172 156.361 154.357C156.537 154.543 156.747 154.69 156.978 154.79C157.209 154.89 157.456 154.941 157.706 154.941Z" fill="white"/>
<path d="M126.874 150.95V157.719C126.907 158.003 126.998 158.275 127.139 158.518C127.281 158.762 127.469 158.971 127.693 159.132C127.979 159.321 128.307 159.429 128.645 159.445C128.558 159.613 128.429 159.753 128.273 159.852C128.117 159.95 127.939 160.003 127.757 160.005H127.044C126.767 160.005 126.502 159.889 126.306 159.683C126.11 159.477 126 159.197 126 158.906V152.018C126 151.759 126.088 151.509 126.248 151.313C126.408 151.117 126.63 150.988 126.874 150.95Z" fill="white"/>
<path d="M131.256 157.375C131.256 157.375 131.71 158.171 133.179 157.524C133.179 157.816 133.069 158.095 132.873 158.301C132.677 158.508 132.411 158.623 132.134 158.623H131.417C131.141 158.622 130.876 158.506 130.682 158.3C130.487 158.094 130.377 157.815 130.377 157.524V154.956H131.256V157.375Z" fill="white"/>
<path d="M126.874 150.95V157.719C126.907 158.003 126.998 158.275 127.139 158.518C127.281 158.762 127.469 158.971 127.693 159.132C127.979 159.321 128.307 159.429 128.645 159.445C128.558 159.613 128.429 159.753 128.273 159.852C128.117 159.95 127.939 160.003 127.757 160.005H127.044C126.767 160.005 126.502 159.889 126.306 159.683C126.11 159.477 126 159.197 126 158.906V152.018C126 151.759 126.088 151.509 126.248 151.313C126.408 151.117 126.63 150.988 126.874 150.95Z" fill="white"/>
<path d="M128.85 151.659H148.912V152.465H128.85V151.659Z" fill="white"/>
<path d="M135.653 157.375C135.653 157.375 136.087 158.166 137.556 157.519C137.558 157.662 137.533 157.804 137.483 157.937C137.433 158.07 137.358 158.191 137.263 158.294C137.169 158.396 137.056 158.478 136.931 158.535C136.806 158.591 136.672 158.621 136.536 158.623H135.819C135.542 158.623 135.276 158.508 135.08 158.301C134.884 158.095 134.774 157.816 134.774 157.524V154.956H135.653V157.375Z" fill="white"/>
<path d="M155.422 148.937C154.424 148.937 153.442 149.198 152.565 149.698C151.687 150.197 150.942 150.919 150.396 151.797C150.631 150.577 151.26 149.48 152.176 148.692C153.092 147.903 154.239 147.473 155.422 147.473C156.605 147.473 157.752 147.903 158.668 148.692C159.584 149.48 160.213 150.577 160.448 151.797C159.902 150.919 159.157 150.197 158.279 149.698C157.402 149.198 156.42 148.937 155.422 148.937Z" fill="white"/>
</g>
<g clip-path="url(#clip1_2001_1058)">
<path d="M206.479 138.094C206.479 138.094 209.964 142.451 212.753 153.219C212.863 153.661 212.884 154.12 212.815 154.57C212.746 155.02 212.588 155.452 212.351 155.841C212.113 156.231 211.8 156.57 211.43 156.839C211.06 157.108 210.64 157.302 210.194 157.41L192.502 161.483C191.961 161.609 191.397 161.606 190.858 161.472C190.318 161.338 189.819 161.078 189.401 160.714C188.984 160.35 188.66 159.892 188.457 159.379C188.255 158.865 188.179 158.311 188.236 157.762C188.556 155.238 188.236 151.898 187.539 147.624L206.479 138.094Z" fill="#0C0B14"/>
<path d="M201.509 150.909C202.758 150.949 203.953 151.421 204.889 152.243C205.824 153.065 206.441 154.186 206.632 155.411C206.632 155.411 201.857 153.661 201.509 150.909Z" fill="#6C48DD"/>
<path d="M201.474 151.317C202.321 150.406 203.462 149.818 204.701 149.652C205.939 149.487 207.196 149.755 208.256 150.411C208.256 150.411 203.83 152.859 201.474 151.317Z" fill="#6C48DD"/>
<path d="M196.224 134.187C196.224 134.187 185.399 135.321 186.897 144.235L188.013 150.321L198.832 150.28L196.224 134.187Z" fill="#171823"/>
<path d="M208.507 142.458C209.567 147.88 204.771 148.641 199.041 149.74C193.311 150.84 188.835 151.87 187.776 146.448C187.31 143.717 187.93 140.913 189.506 138.626C191.082 136.339 193.49 134.748 196.224 134.187C198.955 133.703 201.767 134.298 204.062 135.843C206.357 137.388 207.952 139.762 208.507 142.458Z" fill="#171823"/>
<path d="M192.676 149.816C192.621 150.35 192.408 150.855 192.063 151.268C191.719 151.681 191.258 151.983 190.741 152.137C190.223 152.29 189.671 152.288 189.154 152.13C188.638 151.973 188.18 151.667 187.839 151.251C187.497 150.835 187.288 150.328 187.237 149.794C187.187 149.26 187.297 148.724 187.553 148.252C187.81 147.78 188.202 147.394 188.679 147.143C189.157 146.893 189.699 146.788 190.236 146.842C190.593 146.879 190.94 146.984 191.256 147.154C191.572 147.323 191.851 147.552 192.077 147.828C192.304 148.104 192.473 148.422 192.576 148.763C192.679 149.104 192.713 149.462 192.676 149.816Z" fill="#B96462"/>
<path d="M197.2 154.588L199.849 166.787L207.504 164.367L201.014 148.067L197.2 154.588Z" fill="#CB7E78"/>
<path d="M189.651 139.678C188.946 140.701 188.484 141.869 188.298 143.094C188.298 145.736 188.347 149.72 189.693 152.237C191.421 155.508 194.196 157.977 198.413 156.179C198.413 156.179 203.558 154.519 203.39 147.299C203.133 135.805 194.238 133.675 189.651 139.678Z" fill="#CB7E78"/>
<path d="M192.237 149.014L192.021 150.791L193.262 151.075" stroke="#1D0006" stroke-width="0.31" stroke-linecap="round" stroke-linejoin="round"/>
<path d="M196.085 146.815C196.076 146.964 196.019 147.106 195.921 147.22C195.824 147.334 195.692 147.414 195.545 147.447C195.399 147.481 195.245 147.466 195.107 147.406C194.97 147.345 194.855 147.242 194.781 147.112C194.791 146.963 194.848 146.821 194.945 146.707C195.042 146.593 195.174 146.513 195.321 146.48C195.468 146.446 195.622 146.461 195.759 146.521C195.897 146.581 196.011 146.684 196.085 146.815Z" fill="#210907"/>
<path d="M190.829 147.804C190.856 147.922 190.847 148.046 190.803 148.16C190.76 148.273 190.683 148.372 190.583 148.442C190.483 148.512 190.364 148.552 190.242 148.555C190.119 148.559 189.999 148.526 189.895 148.462C189.791 148.397 189.709 148.304 189.658 148.193C189.608 148.082 189.592 147.959 189.612 147.839C189.632 147.719 189.688 147.607 189.771 147.519C189.855 147.43 189.964 147.368 190.083 147.341C190.163 147.322 190.245 147.32 190.326 147.333C190.407 147.346 190.484 147.375 190.553 147.418C190.623 147.461 190.683 147.518 190.73 147.584C190.777 147.65 190.811 147.725 190.829 147.804Z" fill="#210907"/>
<path d="M190.871 145.757C190.871 145.757 191.017 146.358 190.083 146.324C189.557 146.273 189.027 146.273 188.501 146.324C188.39 146.342 188.276 146.329 188.173 146.286C188.069 146.243 187.98 146.172 187.915 146.082C187.871 146.017 187.854 145.939 187.865 145.862C187.877 145.786 187.917 145.716 187.978 145.667C188.448 145.299 189.04 145.119 189.637 145.162C190.745 145.21 190.871 145.757 190.871 145.757Z" fill="#210907"/>
<path d="M193.806 144.989C193.806 144.989 193.806 145.632 194.935 145.169C195.734 144.866 196.554 144.618 197.389 144.429C197.525 144.4 197.653 144.34 197.762 144.254C197.871 144.167 197.958 144.057 198.016 143.931C198.031 143.894 198.038 143.854 198.035 143.814C198.032 143.774 198.02 143.735 198 143.7C197.98 143.666 197.952 143.636 197.919 143.614C197.885 143.591 197.847 143.577 197.807 143.571C196.891 143.448 195.96 143.553 195.095 143.876C193.771 144.415 193.806 144.989 193.806 144.989Z" fill="#210907"/>
<path d="M200.881 140.369L201.425 147.486L206.834 141.22L200.881 140.369Z" fill="#171823"/>
<path d="M190.927 137.568C190.927 137.568 196.12 143.156 204.032 143.827C204.032 143.827 207.015 142.976 202.763 138.419C198.511 133.862 190.927 137.568 190.927 137.568Z" fill="#171823"/>
<path d="M207.183 147.728C207.123 148.304 206.893 148.851 206.52 149.298C206.148 149.745 205.65 150.072 205.09 150.238C204.531 150.404 203.933 150.402 203.375 150.232C202.816 150.062 202.321 149.731 201.951 149.282C201.582 148.832 201.356 148.284 201.3 147.707C201.245 147.13 201.363 146.549 201.64 146.039C201.917 145.528 202.341 145.111 202.857 144.839C203.373 144.567 203.959 144.453 204.541 144.512C204.927 144.551 205.302 144.665 205.644 144.847C205.986 145.03 206.288 145.278 206.534 145.577C206.779 145.875 206.963 146.219 207.074 146.588C207.185 146.957 207.222 147.344 207.183 147.728Z" fill="#CB7E78"/>
<path d="M205.182 146.51C204.893 146.464 204.596 146.484 204.316 146.57C204.035 146.656 203.779 146.806 203.567 147.007C203.355 147.208 203.192 147.455 203.093 147.729C202.993 148.003 202.959 148.296 202.993 148.585" stroke="#1D0006" stroke-width="0.31" stroke-linecap="round" stroke-linejoin="round"/>
<path d="M203.893 150.515L203.14 150.148L191.986 150.044L189.337 151.566C189.337 151.566 189.177 156.635 195.806 159.747C195.841 159.747 202.993 157.188 203.893 150.515Z" fill="#6C48DD"/>
<path d="M232.271 229.665L234.83 238.552L246.987 251L239.41 225.82L232.271 229.665Z" fill="#101010"/>
<path d="M242.735 224.782L239.41 225.82L246.987 251L250.319 249.963L242.735 224.782Z" fill="white"/>
<path d="M222.442 241.581L219.828 232.521L232.271 229.665L234.885 238.725L222.442 241.581Z" fill="#CB7E78"/>
<path d="M201.16 200.28C200.867 201.131 194.977 230.585 192.85 241.685C192.631 242.837 192.684 244.024 193.004 245.154C193.324 246.283 193.902 247.323 194.695 248.194C195.487 249.064 196.472 249.741 197.571 250.171C198.671 250.602 199.856 250.774 201.034 250.675L230.515 243.566L226.569 229.9L212.195 232.507L219.751 211.262L201.16 200.28Z" fill="black"/>
<path d="M178.393 239.133L169.079 238.974L153.534 246.878L180.024 247.024L178.393 239.133Z" fill="#101010"/>
<path d="M180.052 250.481L180.024 247.023L153.534 246.878L153.562 250.343L180.052 250.481Z" fill="white"/>
<path d="M166.988 225.917L176.483 226.083L178.393 239.133L168.898 238.967L166.988 225.917Z" fill="#CB7E78"/>
<path d="M224.262 197.113C224.262 197.113 191.219 192.002 170.878 188.565C169.405 188.316 167.892 188.42 166.467 188.868C165.043 189.316 163.746 190.096 162.687 191.142C161.628 192.188 160.836 193.471 160.377 194.882C159.919 196.294 159.808 197.794 160.052 199.257L167.023 233.835H184.046L180.686 207.113L209.497 215.571C221.069 217.687 226.116 209.008 225.015 201.878L224.262 197.113Z" fill="black"/>
<path d="M169.128 159.208C167.894 157.839 166.489 156.633 164.946 155.619L161.46 153.323C160.7 152.763 159.807 152.408 158.867 152.292L151.136 152.258C150.867 152.207 150.589 152.265 150.363 152.418C150.137 152.571 149.981 152.807 149.93 153.074C149.879 153.34 149.938 153.616 150.092 153.841C150.246 154.065 150.484 154.22 150.753 154.27L157.257 154.892L158.993 156.227C158.86 156.124 158.707 156.048 158.544 156.005C158.381 155.962 158.21 155.952 158.043 155.977C157.876 156.002 157.716 156.06 157.572 156.148C157.429 156.236 157.305 156.353 157.208 156.49C157.085 156.707 157.033 156.956 157.058 157.203C157.083 157.451 157.184 157.685 157.347 157.873L162.178 161.801C162.675 162.274 163.287 162.61 163.955 162.776C164.622 162.942 165.322 162.933 165.984 162.749L168.403 166.573L172.865 163.426L169.128 159.208Z" fill="#CB7E78"/>
<path d="M175.054 183.579L164.792 166.545L172.823 159.747L186.186 177.32C186.627 178.116 186.89 178.997 186.958 179.903C187.026 180.808 186.898 181.718 186.581 182.57C186.265 183.422 185.768 184.197 185.124 184.842C184.479 185.488 183.703 185.988 182.847 186.311C181.432 186.841 179.873 186.858 178.447 186.358C177.021 185.858 175.819 184.874 175.054 183.579Z" fill="#6C48DD"/>
<path d="M178.246 174.927L208.124 162.251L213.589 174.734L183.196 186.642C182.347 186.983 181.434 187.139 180.519 187.101C179.604 187.062 178.708 186.829 177.891 186.417C177.074 186.005 176.356 185.425 175.785 184.715C175.214 184.004 174.803 183.181 174.58 182.299C174.213 180.839 174.38 179.297 175.052 177.947C175.723 176.597 176.855 175.527 178.246 174.927Z" fill="#6C48DD"/>
<path d="M191.463 183.413L200.212 179.983L196.622 171.525L191.463 183.413Z" fill="#1D1F30"/>
<path d="M227.204 190.087L209.637 171.414C208.417 170.117 207.765 168.395 207.821 166.622C207.877 164.85 208.637 163.172 209.936 161.953C210.598 161.329 211.379 160.844 212.234 160.528C213.089 160.211 214 160.069 214.911 160.11C215.823 160.152 216.717 160.375 217.539 160.768C218.361 161.161 219.095 161.715 219.696 162.396L236.67 181.511C237.28 182.189 237.737 182.988 238.01 183.855C238.283 184.723 238.365 185.638 238.252 186.54C238.138 187.441 237.831 188.308 237.351 189.082C236.872 189.856 236.231 190.519 235.471 191.027C234.205 191.871 232.678 192.24 231.163 192.068C229.647 191.895 228.244 191.193 227.204 190.087Z" fill="#6C48DD"/>
<path d="M257.855 211.733H205.217C201.271 211.733 198.072 214.906 198.072 218.821V218.828C198.072 222.743 201.271 225.917 205.217 225.917H257.855C261.801 225.917 265 222.743 265 218.828V218.821C265 214.906 261.801 211.733 257.855 211.733Z" fill="white"/>
<path d="M217.806 216.331L216.113 218.545L218.81 218.185V219.43L216.113 219.105V219.146L217.827 221.269L216.705 221.906L215.632 219.43L214.467 221.926L213.457 221.283L215.151 219.125V219.091L212.509 219.43V218.219L215.13 218.558V218.524L213.457 216.366L214.544 215.744L215.645 218.206H215.68L216.768 215.723L217.806 216.331Z" fill="black"/>
<path d="M229.099 216.331L227.405 218.545L230.103 218.185V219.43L227.405 219.105V219.146L229.12 221.269L227.998 221.906L226.924 219.43L225.76 221.926L224.75 221.283L226.443 219.125V219.091L223.802 219.43V218.219L226.423 218.558V218.524L224.75 216.366L225.837 215.744L226.938 218.206H226.98L228.068 215.723L229.099 216.331Z" fill="black"/>
<path d="M240.393 216.331L238.699 218.545L241.396 218.185V219.43L238.699 219.105V219.146L240.414 221.269L239.291 221.906L238.218 219.43H238.183L237.019 221.926L236.008 221.283L237.702 219.125V219.091L235.06 219.43V218.219L237.681 218.558V218.524L236.008 216.366L237.095 215.744L238.197 218.206H238.239L239.326 215.723L240.393 216.331Z" fill="black"/>
<path d="M251.686 216.331L249.992 218.545L252.689 218.185V219.43L249.992 219.105V219.146L251.706 221.269L250.584 221.906L249.511 219.43L248.353 221.926L247.336 221.283L249.03 219.125V219.091L246.353 219.43V218.219L248.974 218.558V218.524L247.301 216.366L248.388 215.744L249.49 218.206H249.532L250.619 215.723L251.686 216.331Z" fill="black"/>
<path d="M227.531 211.166C227.431 211.475 227.45 211.809 227.582 212.106C227.715 212.402 227.954 212.639 228.252 212.773C228.55 212.906 228.887 212.926 229.199 212.829C229.511 212.731 229.776 212.523 229.943 212.244L230.271 211.698C230.968 212.092 231.978 213.192 230.968 216.823C230.89 217.083 230.908 217.362 231.017 217.61C231.127 217.859 231.322 218.061 231.568 218.18C231.814 218.299 232.094 218.329 232.359 218.262C232.625 218.196 232.858 218.039 233.017 217.819C233.031 217.802 233.043 217.783 233.052 217.763C233.116 217.967 233.236 218.149 233.399 218.289C233.561 218.43 233.759 218.523 233.972 218.558C234.184 218.593 234.402 218.569 234.602 218.488C234.801 218.408 234.974 218.274 235.101 218.102C235.119 218.025 235.167 217.958 235.234 217.916C235.301 217.874 235.383 217.86 235.461 217.877C235.538 217.895 235.606 217.942 235.648 218.009C235.691 218.076 235.705 218.156 235.687 218.233C235.915 218.299 236.158 218.293 236.383 218.217C236.608 218.14 236.803 217.996 236.942 217.805C237.024 217.697 237.085 217.575 237.123 217.445L237.158 217.307H237.214C237.443 217.372 237.687 217.366 237.913 217.289C238.138 217.213 238.335 217.069 238.475 216.878C238.555 216.77 238.615 216.648 238.65 216.518C238.919 215.617 239.09 214.69 239.159 213.752V213.717C239.187 213.338 239.187 212.956 239.159 212.576C239.089 210.861 238.782 207.604 237.458 205.128L228.918 207.044L227.531 211.166Z" fill="#CB7E78"/>
<path d="M230.236 211.698L226.458 211.733L226.743 213.773H230.236V211.698Z" fill="white"/>
<path d="M238.218 184.983L238.971 205.958L226.702 207.341L225.44 186.089C225.372 185.183 225.501 184.273 225.818 183.42C226.135 182.567 226.633 181.792 227.278 181.146C227.923 180.5 228.7 180 229.556 179.677C230.413 179.355 231.329 179.218 232.244 179.277C233.76 179.37 235.194 179.995 236.288 181.04C237.383 182.085 238.067 183.483 238.218 184.983Z" fill="#6C48DD"/>
<path d="M201.244 164.796L196.043 176.075L201.257 193.489L224.262 197.099L218.915 169.685C218.329 163.848 211.477 160.826 211.477 160.826L201.244 164.796Z" fill="#6C48DD"/>
<path d="M221.759 184.291L216.057 178.226L223.579 193.627L221.759 184.291Z" fill="#1D1F30"/>
<path d="M197.786 169.353C197.786 169.353 191.589 178.516 198.364 184.872C203.621 189.796 206.834 181.926 206.834 181.926L205.05 176.089L197.786 169.353Z" fill="#6C48DD"/>
<path d="M198.392 169.159L197.8 164.692C197.759 164.354 197.831 164.012 198.007 163.719C198.182 163.426 198.45 163.199 198.769 163.074L206.033 160.204C206.321 160.089 206.638 160.064 206.941 160.13C207.244 160.197 207.52 160.353 207.733 160.577L210.522 163.495L198.392 169.159Z" fill="#6C48DD"/>
</g>
<defs>
<clipPath id="clip0_2001_1058">
<rect width="35" height="13" fill="white" transform="matrix(-1 0 0 1 161 147)"/>
</clipPath>
<clipPath id="clip1_2001_1058">
<rect width="115" height="117" fill="white" transform="translate(150 134)"/>
</clipPath>
</defs>
</svg>
