<svg width="236" height="251" viewBox="0 0 236 251" fill="none" xmlns="http://www.w3.org/2000/svg">
<path d="M159.749 66.1059H186.151L206.03 51.5491H218.654" stroke="#DBDBDB" stroke-width="0.75" stroke-miterlimit="10"/>
<path d="M219.922 52.8449C219.665 52.8449 219.415 52.7689 219.202 52.6265C218.988 52.4841 218.822 52.2817 218.724 52.0449C218.626 51.8081 218.6 51.5476 218.65 51.2962C218.7 51.0448 218.824 50.8139 219.005 50.6327C219.186 50.4515 219.417 50.3281 219.669 50.2781C219.92 50.2281 220.181 50.2537 220.418 50.3518C220.655 50.4499 220.858 50.616 221 50.8291C221.143 51.0422 221.219 51.2927 221.219 51.549C221.219 51.8927 221.082 52.2223 220.839 52.4653C220.596 52.7083 220.266 52.8449 219.922 52.8449Z" stroke="#DBDBDB" stroke-width="0.75" stroke-miterlimit="10"/>
<path d="M159.749 61.8529H183.746L203.631 47.2961H208.435" stroke="#DBDBDB" stroke-width="0.75" stroke-miterlimit="10"/>
<path d="M209.703 48.5922C209.446 48.591 209.195 48.5138 208.983 48.3702C208.77 48.2266 208.605 48.0231 208.508 47.7856C208.411 47.548 208.387 47.2871 208.438 47.0358C208.49 46.7845 208.615 46.5542 208.798 46.374C208.98 46.1938 209.213 46.0719 209.465 46.0236C209.717 45.9754 209.978 46.003 210.214 46.103C210.45 46.203 210.652 46.3708 210.793 46.5853C210.933 46.7998 211.007 47.0512 211.005 47.3077C211.002 47.6504 210.863 47.978 210.619 48.2187C210.375 48.4594 210.046 48.5937 209.703 48.5922Z" stroke="#DBDBDB" stroke-width="0.75" stroke-miterlimit="10"/>
<path d="M159.749 70.4045H208.355" stroke="#DBDBDB" stroke-width="0.75" stroke-miterlimit="10"/>
<path d="M209.646 71.7003C209.389 71.7003 209.138 71.6243 208.925 71.4819C208.712 71.3396 208.546 71.1372 208.448 70.9004C208.349 70.6636 208.324 70.4031 208.374 70.1517C208.424 69.9003 208.547 69.6694 208.729 69.4882C208.91 69.307 209.141 69.1835 209.393 69.1335C209.644 69.0835 209.905 69.1092 210.142 69.2073C210.379 69.3054 210.581 69.4715 210.724 69.6846C210.866 69.8977 210.942 70.1482 210.942 70.4045C210.942 70.7482 210.806 71.0778 210.562 71.3208C210.319 71.5638 209.989 71.7003 209.646 71.7003Z" stroke="#DBDBDB" stroke-width="0.75" stroke-miterlimit="10"/>
<path d="M159.749 74.7373H180.107L198.758 84.6245H232.203" stroke="#DBDBDB" stroke-width="0.75" stroke-miterlimit="10"/>
<path d="M233.494 85.9147C233.237 85.9147 232.987 85.8385 232.773 85.6959C232.56 85.5532 232.394 85.3505 232.296 85.1134C232.198 84.8763 232.172 84.6155 232.223 84.3639C232.273 84.1124 232.397 83.8815 232.579 83.7005C232.761 83.5195 232.993 83.3966 233.245 83.3472C233.497 83.2979 233.758 83.3243 233.994 83.4233C234.231 83.5222 234.433 83.6892 234.575 83.9031C234.717 84.1169 234.792 84.368 234.791 84.6245C234.791 84.7945 234.757 84.9627 234.692 85.1196C234.627 85.2765 234.531 85.419 234.411 85.5388C234.29 85.6587 234.147 85.7536 233.99 85.8181C233.833 85.8826 233.664 85.9154 233.494 85.9147Z" stroke="#DBDBDB" stroke-width="0.75" stroke-miterlimit="10"/>
<path d="M159.749 79.053H178.114L198.735 90.7041H215.895" stroke="#DBDBDB" stroke-width="0.75" stroke-miterlimit="10"/>
<path d="M217.186 91.9999C216.929 91.9999 216.678 91.9239 216.465 91.7815C216.252 91.6391 216.086 91.4367 215.988 91.1999C215.889 90.9632 215.864 90.7026 215.914 90.4512C215.964 90.1999 216.087 89.969 216.269 89.7877C216.45 89.6065 216.681 89.4831 216.933 89.4331C217.184 89.3831 217.445 89.4088 217.682 89.5068C217.919 89.6049 218.121 89.771 218.264 89.9841C218.406 90.1972 218.482 90.4478 218.482 90.704C218.482 91.0477 218.346 91.3773 218.102 91.6203C217.859 91.8634 217.529 91.9999 217.186 91.9999Z" stroke="#DBDBDB" stroke-width="0.75" stroke-miterlimit="10"/>
<path d="M76.0419 171.691H50.1254L30.241 157.129H12.7559" stroke="#DBDBDB" stroke-width="0.75" stroke-miterlimit="10"/>
<path d="M11.4819 158.424C11.7388 158.426 11.9903 158.35 12.2044 158.208C12.4185 158.066 12.5856 157.864 12.6845 157.627C12.7833 157.39 12.8095 157.129 12.7596 156.877C12.7098 156.625 12.5862 156.394 12.4045 156.212C12.2228 156.031 11.9912 155.907 11.7392 155.857C11.4871 155.808 11.2259 155.834 10.9887 155.932C10.7516 156.031 10.5491 156.198 10.4071 156.412C10.265 156.626 10.1898 156.878 10.1909 157.134C10.1924 157.476 10.3289 157.803 10.5707 158.045C10.8125 158.287 11.14 158.423 11.4819 158.424Z" stroke="#DBDBDB" stroke-width="0.75" stroke-miterlimit="10"/>
<path d="M76.0419 167.375H52.5303L32.6459 152.819H22.9751" stroke="#DBDBDB" stroke-width="0.75" stroke-miterlimit="10"/>
<path d="M21.7012 154.115C21.9577 154.115 22.2084 154.039 22.4216 153.896C22.6349 153.754 22.8011 153.551 22.8992 153.315C22.9973 153.078 23.023 152.817 22.973 152.566C22.923 152.315 22.7995 152.084 22.6181 151.902C22.4368 151.721 22.2057 151.598 21.9542 151.548C21.7027 151.498 21.4419 151.524 21.205 151.622C20.9681 151.72 20.7656 151.886 20.6231 152.099C20.4806 152.312 20.4045 152.562 20.4045 152.819C20.4045 153.162 20.5412 153.492 20.7843 153.735C21.0275 153.978 21.3573 154.115 21.7012 154.115Z" stroke="#DBDBDB" stroke-width="0.75" stroke-miterlimit="10"/>
<path d="M76.0417 176.035H3.59326" stroke="#DBDBDB" stroke-width="0.75" stroke-miterlimit="10"/>
<path d="M2.29668 177.331C2.55314 177.331 2.80384 177.255 3.01708 177.113C3.23031 176.97 3.39651 176.768 3.49466 176.531C3.5928 176.294 3.61848 176.034 3.56845 175.783C3.51841 175.531 3.39492 175.3 3.21357 175.119C3.03223 174.938 2.80118 174.814 2.54965 174.764C2.29812 174.714 2.0374 174.74 1.80046 174.838C1.56352 174.936 1.36101 175.102 1.21853 175.315C1.07605 175.529 1 175.779 1 176.035C1 176.379 1.13661 176.709 1.37979 176.952C1.62296 177.195 1.95278 177.331 2.29668 177.331Z" stroke="#DBDBDB" stroke-width="0.75" stroke-miterlimit="10"/>
<path d="M76.0418 180.323H56.1688L37.5126 190.204H28.4016" stroke="#DBDBDB" stroke-width="0.75" stroke-miterlimit="10"/>
<path d="M27.105 191.5C27.3615 191.5 27.6122 191.424 27.8254 191.281C28.0387 191.139 28.2049 190.937 28.303 190.7C28.4012 190.463 28.4268 190.203 28.3768 189.951C28.3268 189.7 28.2033 189.469 28.0219 189.288C27.8406 189.107 27.6095 188.983 27.358 188.933C27.1065 188.883 26.8458 188.909 26.6088 189.007C26.3719 189.105 26.1694 189.271 26.0269 189.484C25.8844 189.697 25.8084 189.948 25.8084 190.204C25.8076 190.374 25.8406 190.543 25.9055 190.701C25.9704 190.858 26.0659 191.002 26.1865 191.122C26.307 191.242 26.4503 191.338 26.6079 191.403C26.7656 191.468 26.9345 191.501 27.105 191.5Z" stroke="#DBDBDB" stroke-width="0.75" stroke-miterlimit="10"/>
<path d="M76.0419 184.632H58.1625L37.5413 196.289H15.5149" stroke="#DBDBDB" stroke-width="0.75" stroke-miterlimit="10"/>
<path d="M14.2182 197.579C14.4754 197.579 14.7267 197.503 14.9403 197.36C15.1539 197.217 15.3201 197.013 15.4177 196.776C15.5153 196.538 15.54 196.276 15.4885 196.024C15.4371 195.773 15.3119 195.542 15.1288 195.361C14.9458 195.181 14.7131 195.059 14.4605 195.011C14.2078 194.963 13.9466 194.991 13.71 195.091C13.4734 195.192 13.272 195.361 13.1316 195.576C12.9912 195.792 12.9181 196.044 12.9215 196.301C12.9245 196.642 13.0626 196.968 13.3057 197.208C13.5487 197.447 13.8768 197.581 14.2182 197.579Z" stroke="#DBDBDB" stroke-width="0.75" stroke-miterlimit="10"/>
<path d="M121.785 43.5114V22.2413L130.371 10.5274V7.14795" stroke="#DBDBDB" stroke-width="0.75" stroke-miterlimit="10"/>
<path d="M129.074 5.80662C129.078 6.06215 129.157 6.31099 129.301 6.52182C129.446 6.73266 129.649 6.89608 129.887 6.99154C130.124 7.08699 130.384 7.11023 130.634 7.05831C130.885 7.00639 131.114 6.88164 131.294 6.69975C131.473 6.51786 131.595 6.28696 131.644 6.03607C131.693 5.78518 131.666 5.52551 131.567 5.28972C131.469 5.05393 131.302 4.85255 131.09 4.71091C130.877 4.56926 130.627 4.49367 130.371 4.49365C130.199 4.49364 130.029 4.52771 129.871 4.5939C129.712 4.66009 129.569 4.75708 129.448 4.87923C129.327 5.00138 129.232 5.14626 129.168 5.30546C129.104 5.46466 129.072 5.63501 129.074 5.80662Z" stroke="#DBDBDB" stroke-width="0.75" stroke-miterlimit="10"/>
<path d="M126.104 43.5116V24.6392L136.472 10.4991V3.80298" stroke="#DBDBDB" stroke-width="0.75" stroke-miterlimit="10"/>
<path d="M136.472 3.80286C137.188 3.80286 137.768 3.22269 137.768 2.50702C137.768 1.79135 137.188 1.21118 136.472 1.21118C135.756 1.21118 135.175 1.79135 135.175 2.50702C135.175 3.22269 135.756 3.80286 136.472 3.80286Z" stroke="#DBDBDB" stroke-width="0.75" stroke-miterlimit="10"/>
<path d="M117.467 43.5114V12.2686" stroke="#DBDBDB" stroke-width="0.75" stroke-miterlimit="10"/>
<path d="M116.182 10.9785C116.182 11.2347 116.258 11.4853 116.4 11.6984C116.543 11.9115 116.745 12.0776 116.982 12.1757C117.219 12.2737 117.48 12.2994 117.731 12.2494C117.983 12.1994 118.214 12.076 118.395 11.8948C118.577 11.7135 118.7 11.4826 118.75 11.2313C118.8 10.9799 118.774 10.7193 118.676 10.4826C118.578 10.2458 118.412 10.0434 118.199 9.90101C117.985 9.75862 117.735 9.68262 117.478 9.68262C117.134 9.68262 116.805 9.81914 116.561 10.0622C116.318 10.3052 116.182 10.6348 116.182 10.9785Z" stroke="#DBDBDB" stroke-width="0.75" stroke-miterlimit="10"/>
<path d="M113.149 43.5114V28.281L106.528 15.8021V4.07104" stroke="#DBDBDB" stroke-width="0.75" stroke-miterlimit="10"/>
<path d="M106.528 3.9513C107.244 3.9513 107.825 3.37113 107.825 2.65546C107.825 1.93979 107.244 1.35962 106.528 1.35962C105.812 1.35962 105.231 1.93979 105.231 2.65546C105.231 3.37113 105.812 3.9513 106.528 3.9513Z" stroke="#DBDBDB" stroke-width="0.75" stroke-miterlimit="10"/>
<path d="M108.83 43.5114V30.2733L99.325 13.4673V10.1792" stroke="#DBDBDB" stroke-width="0.75" stroke-miterlimit="10"/>
<path d="M98.0283 8.80357C98.0272 9.06035 98.1024 9.31167 98.2445 9.52564C98.3865 9.73961 98.589 9.90659 98.8262 10.0054C99.0633 10.1042 99.3245 10.1303 99.5766 10.0805C99.8286 10.0307 100.06 9.90713 100.242 9.72556C100.424 9.54399 100.547 9.31257 100.597 9.06068C100.647 8.80878 100.621 8.54776 100.522 8.31074C100.423 8.07373 100.256 7.8714 100.042 7.72945C99.8277 7.5875 99.5762 7.51231 99.3193 7.51344C98.9774 7.51494 98.6499 7.65135 98.4081 7.89297C98.1663 8.13459 98.0298 8.46187 98.0283 8.80357Z" stroke="#DBDBDB" stroke-width="0.75" stroke-miterlimit="10"/>
<path d="M93.9611 26.9854H12.9329V39.2587H93.9611V26.9854Z" fill="#0C0B14"/>
<rect x="57" y="43" width="114" height="208" rx="9" fill="#0C0B14"/>
<path d="M162.311 43H65.7741C64.4788 43.0106 63.1985 43.2635 62.0062 43.7442C60.8139 44.2248 59.7331 44.9238 58.8254 45.8013C57.9178 46.6787 57.2011 47.7174 56.7164 48.8579C56.2317 49.9984 55.9884 51.2185 56.0004 52.4483V241.198C55.9776 243.681 56.9943 246.071 58.8271 247.843C60.6599 249.615 63.1587 250.623 65.7741 250.646H162.311C164.928 250.625 167.429 249.617 169.264 247.845C171.099 246.074 172.117 243.683 172.096 241.198V52.4483C172.107 51.2178 171.863 49.9972 171.378 48.8562C170.892 47.7153 170.174 46.6765 169.265 45.799C168.357 44.9216 167.275 44.2228 166.082 43.7425C164.888 43.2622 163.607 43.0099 162.311 43ZM165.984 235.351C165.984 240.319 162.065 244.338 157.233 244.338H70.8466C65.9969 244.338 62.084 240.319 62.084 235.351V59.6186C62.084 49.4978 65.9969 49.0042 70.8466 49.0042H88.149C89.1543 49.0042 89.9769 50.089 89.9769 51.4341V52.0253C89.9769 55.1765 91.7934 55.1874 94.0269 55.1874H134.013C136.297 55.1874 138.063 55.1874 138.063 52.0253V51.4178C138.063 50.0727 138.874 48.9879 139.902 48.9879H157.204C162.037 48.9879 165.955 50.333 165.955 59.6024L165.984 235.351Z" fill="#171823"/>
<path d="M119.492 51.2226H108.576C108.397 51.2226 108.226 51.1552 108.099 51.0352C107.973 50.9152 107.902 50.7524 107.902 50.5826C107.902 50.4986 107.919 50.4154 107.953 50.3377C107.987 50.2601 108.037 50.1895 108.099 50.1301C108.162 50.0707 108.236 50.0235 108.318 49.9913C108.4 49.9592 108.487 49.9426 108.576 49.9426H119.492C119.581 49.9426 119.668 49.9592 119.75 49.9913C119.832 50.0235 119.906 50.0707 119.969 50.1301C120.031 50.1895 120.081 50.2601 120.115 50.3377C120.149 50.4154 120.166 50.4986 120.166 50.5826C120.166 50.7524 120.095 50.9152 119.969 51.0352C119.842 51.1552 119.671 51.2226 119.492 51.2226Z" fill="white"/>
<path d="M85.1614 52.931L84.9958 53.0883C84.9615 53.1209 84.933 53.1534 84.8987 53.1805C84.4706 52.7765 83.8915 52.5496 83.2878 52.5496C82.6842 52.5496 82.1051 52.7765 81.677 53.1805C81.6427 53.1805 81.6141 53.1209 81.5856 53.0938L81.4199 52.9365L81.6313 52.7575C81.7813 52.6404 81.9463 52.542 82.1225 52.4646C82.3271 52.3677 82.5441 52.2965 82.768 52.2531L83.0936 52.2151H83.3792H83.5963C83.7915 52.2394 83.9832 52.2849 84.1675 52.3507C84.3078 52.3992 84.4435 52.4591 84.5731 52.5297C84.7086 52.6034 84.8367 52.6887 84.9558 52.7846L85.1329 52.9365L85.1614 52.931Z" fill="#A6A6A6"/>
<path d="M82.2027 53.6795L81.9399 53.43C82.2301 53.1538 82.607 52.9748 83.0138 52.9202C83.3066 52.8769 83.606 52.9006 83.8871 52.9893C84.1683 53.078 84.4231 53.2291 84.6304 53.43L84.3676 53.6795C84.2269 53.5436 84.0588 53.4361 83.8733 53.3634C83.6878 53.2907 83.4887 53.2544 83.288 53.2565C83.0866 53.2549 82.8868 53.2915 82.7004 53.3641C82.5141 53.4367 82.3449 53.544 82.2027 53.6795Z" fill="#A6A6A6"/>
<path d="M84.1045 53.9291L83.8417 54.1786C83.7673 54.1071 83.6782 54.051 83.5799 54.0136C83.4816 53.9763 83.3763 53.9586 83.2705 53.9616C83.1642 53.9583 83.0583 53.9764 82.9598 54.0147C82.8614 54.0531 82.7726 54.1107 82.6993 54.184L82.4365 53.9345C82.543 53.8258 82.6718 53.7389 82.8151 53.6794C82.9583 53.6199 83.1129 53.5889 83.2693 53.5884C83.4256 53.5879 83.5804 53.6179 83.7241 53.6765C83.8678 53.7351 83.9973 53.821 84.1045 53.9291Z" fill="#A6A6A6"/>
<path d="M83.522 54.4063C83.5227 54.4359 83.5172 54.4654 83.5058 54.493C83.4944 54.5207 83.4772 54.5458 83.4554 54.567C83.4336 54.5883 83.4075 54.6051 83.3787 54.6166C83.3499 54.6282 83.319 54.6341 83.2878 54.6341C83.2241 54.6341 83.1631 54.6101 83.1181 54.5674C83.0731 54.5246 83.0479 54.4667 83.0479 54.4063C83.0478 54.3766 83.0541 54.3472 83.0662 54.3199C83.0783 54.2926 83.0961 54.2678 83.1185 54.2471C83.1408 54.2264 83.1673 54.2101 83.1964 54.1992C83.2255 54.1884 83.2565 54.1832 83.2878 54.1839C83.3499 54.1839 83.4095 54.2073 83.4534 54.249C83.4973 54.2907 83.522 54.3473 83.522 54.4063Z" fill="#A6A6A6"/>
<path d="M68.8531 53.4137C68.8519 53.2836 68.8915 53.1562 68.9668 53.0476C69.042 52.9389 69.1496 52.854 69.2758 52.8035C69.4019 52.753 69.5411 52.7392 69.6755 52.7639C69.81 52.7886 69.9337 52.8507 70.0309 52.9423C70.1282 53.0338 70.1946 53.1507 70.2217 53.2782C70.2488 53.4056 70.2355 53.5379 70.1833 53.6581C70.1312 53.7784 70.0426 53.8812 69.9288 53.9535C69.815 54.0259 69.6812 54.0645 69.5442 54.0645C69.3619 54.0645 69.187 53.9961 69.0575 53.8742C68.928 53.7523 68.8546 53.5868 68.8531 53.4137Z" fill="#A6A6A6"/>
<path d="M71.0235 53.4137C71.0223 53.2836 71.0619 53.1562 71.1372 53.0476C71.2124 52.9389 71.32 52.854 71.4462 52.8035C71.5724 52.753 71.7115 52.7392 71.8459 52.7639C71.9804 52.7886 72.1041 52.8507 72.2013 52.9423C72.2986 53.0338 72.365 53.1507 72.3921 53.2782C72.4192 53.4056 72.4059 53.5379 72.3537 53.6581C72.3016 53.7784 72.213 53.8812 72.0992 53.9535C71.9854 54.0259 71.8516 54.0645 71.7146 54.0645C71.5323 54.0645 71.3574 53.9961 71.2279 53.8742C71.0985 53.7523 71.025 53.5868 71.0235 53.4137Z" fill="#A6A6A6"/>
<path d="M73.1944 53.4136C73.1932 53.2834 73.233 53.1558 73.3085 53.047C73.384 52.9382 73.4919 52.8533 73.6184 52.8029C73.7449 52.7526 73.8844 52.7392 74.019 52.7643C74.1536 52.7895 74.2772 52.8521 74.3743 52.9442C74.4713 53.0363 74.5372 53.1537 74.5637 53.2815C74.5902 53.4093 74.576 53.5417 74.523 53.6619C74.47 53.782 74.3805 53.8845 74.266 53.9562C74.1514 54.0279 74.017 54.0656 73.8798 54.0645C73.6985 54.0631 73.525 53.9941 73.3968 53.8723C73.2685 53.7505 73.1959 53.5858 73.1944 53.4136Z" fill="#A6A6A6"/>
<path d="M75.3648 53.4136C75.3636 53.2834 75.4034 53.1558 75.4789 53.047C75.5544 52.9382 75.6623 52.8533 75.7888 52.8029C75.9153 52.7526 76.0548 52.7392 76.1894 52.7643C76.324 52.7895 76.4477 52.8521 76.5447 52.9442C76.6417 53.0363 76.7076 53.1537 76.7341 53.2815C76.7606 53.4093 76.7464 53.5417 76.6934 53.6619C76.6404 53.782 76.5509 53.8845 76.4364 53.9562C76.3218 54.0279 76.1874 54.0656 76.0502 54.0645C75.8689 54.0631 75.6954 53.9941 75.5672 53.8723C75.439 53.7505 75.3663 53.5858 75.3648 53.4136Z" fill="#A6A6A6"/>
<path d="M77.5298 53.4137C77.5287 53.2836 77.5683 53.1562 77.6435 53.0476C77.7188 52.9389 77.8263 52.854 77.9525 52.8035C78.0787 52.753 78.2179 52.7392 78.3523 52.7639C78.4868 52.7886 78.6104 52.8507 78.7077 52.9423C78.8049 53.0338 78.8713 53.1507 78.8984 53.2782C78.9256 53.4056 78.9122 53.5379 78.8601 53.6581C78.808 53.7784 78.7194 53.8812 78.6056 53.9535C78.4918 54.0259 78.3579 54.0645 78.221 54.0645C78.0387 54.0645 77.8637 53.9961 77.7343 53.8742C77.6048 53.7523 77.5313 53.5868 77.5298 53.4137Z" fill="#A6A6A6"/>
<path d="M158.05 52.5081H152.731V54.7047H158.05V52.5081Z" fill="#A6A6A6" stroke="white" stroke-width="0.5" stroke-miterlimit="10"/>
<path d="M156.668 52.79H153.052V54.4172H156.668V52.79Z" fill="#A6A6A6"/>
<path d="M158.695 52.9473H158.198V54.2653H158.695V52.9473Z" fill="#A6A6A6"/>
</svg>
